<?xml version="1.0" encoding="UTF-8"?>
<svg width="105px" height="33px" viewBox="0 0 105 33" version="1.1" xmlns="http://www.w3.org/2000/svg" xmlns:xlink="http://www.w3.org/1999/xlink">
    <!-- Generator: Sketch 48.1 (47250) - http://www.bohemiancoding.com/sketch -->
    <title>logoBBWhite105x32</title>
    <desc>Created with Sketch.</desc>
    <defs></defs>
    <g id="logo" stroke="none" stroke-width="1" fill="none" fill-rule="evenodd" transform="translate(-165.000000, -174.000000)">
        <g id="logoBBWhite105x32" transform="translate(165.000000, 174.000000)" fill="#FFFFFF">
            <path d="M93.252863,22.3335595 C93.5853645,22.4793423 93.9001024,22.6749687 94.1970818,22.9204415 C94.6033474,23.2562464 94.9431281,23.7002486 95.2164341,24.2524612 C95.4897401,24.8046739 95.626391,25.4911982 95.626391,26.3120549 L88.8011627,26.3120549 C88.8011627,26.4613015 88.7974694,26.6142771 88.7900828,26.7709861 C88.7826961,26.9276951 88.7790028,27.1254439 88.7790028,27.3642386 C88.7790028,27.8567526 88.808549,28.3716458 88.8676422,28.9089338 C88.9267353,29.4462218 89.0559997,29.9312662 89.2554392,30.3640815 C89.4548787,30.7968968 89.7503402,31.1550834 90.1418325,31.4386521 C90.5333248,31.7222207 91.0540757,31.8640029 91.7041007,31.8640029 C92.3541257,31.8640029 92.8896496,31.7669941 93.3106885,31.5729734 C93.7317274,31.3789527 94.0641216,31.1438928 94.307881,30.8677864 C94.5516403,30.5916801 94.7326105,30.3118468 94.8507969,30.0282782 C94.9689832,29.7447095 95.0576217,29.5133807 95.1167148,29.3342847 L95.4491123,29.4014453 C95.4047924,29.5656167 95.3198473,29.8006766 95.1942743,30.1066323 C95.0687012,30.4125879 94.8692648,30.718539 94.5959588,31.0244947 C94.3226528,31.3304503 93.953326,31.5990903 93.4879672,31.8304226 C93.0226084,32.0617549 92.4206056,32.1774194 91.6819409,32.1774194 C90.9432761,32.1774194 90.2600214,32.0580238 89.6321564,31.8192292 C89.0042913,31.5804345 88.4613809,31.2371723 88.0034087,30.7894323 C87.5454366,30.3416924 87.1908828,29.8081435 86.9397368,29.1887699 C86.6885907,28.5693963 86.5630196,27.8791408 86.5630196,27.1179828 C86.5630196,26.4612975 86.692284,25.8232776 86.9508167,25.203904 C87.2093494,24.5845303 87.5639031,24.0360571 88.0144886,23.5584677 C88.4650741,23.0808784 88.9932115,22.696574 89.5989166,22.405543 C90.1151033,22.1575242 90.6634705,22.0151887 91.2440304,21.9785339 C91.1484262,21.9033328 91.0654116,21.8230442 90.9949861,21.7376676 C90.8472531,21.5585716 90.7512281,21.3720161 90.7069082,21.1779954 C90.6625884,20.9839747 90.6404287,20.8198059 90.6404287,20.6854839 C90.6404287,20.3123672 90.7438403,20.0325339 90.9506664,19.8459756 C91.1574925,19.6594173 91.4086348,19.5661395 91.7041007,19.5661395 C91.8075138,19.5661395 91.9183118,19.5773328 92.0364982,19.5997198 C92.1546845,19.6221068 92.2654826,19.6631491 92.3688957,19.7228477 C92.4723087,19.7825464 92.5609472,19.8646308 92.6348136,19.9691035 C92.7086801,20.0735761 92.7456128,20.2004339 92.7456128,20.3496806 C92.7456128,20.5586259 92.6828272,20.7563747 92.5572542,20.9429331 C92.4316812,21.1294914 92.3688957,21.3347025 92.3688957,21.5585725 C92.3688957,21.7525931 92.4206014,21.8794509 92.5240145,21.9391496 C92.6274275,21.9988482 92.7677717,22.0286971 92.9450513,22.0286971 C93.181424,22.0286971 93.3993269,21.9727305 93.5987663,21.8607955 C93.7982058,21.7488605 93.9939491,21.566036 94.1860019,21.3123167 C94.3780547,21.0585974 94.5701047,20.7265285 94.7621575,20.3161002 C94.9542104,19.9056719 95.1684199,19.401972 95.4047927,18.8049853 L96.3798253,16.297654 L92.5461743,6.71606619 L91.0171459,6.71606619 L91.0171459,6.40264977 L96.4463048,6.40264977 L96.4463048,6.71606619 L94.5848789,6.71606619 L97.4434972,13.7455488 L100.435075,6.71606619 L98.5958085,6.71606619 L98.5958085,6.40264977 L101.986263,6.40264977 L101.986263,6.71606619 L100.789632,6.71606619 L97.1332596,15.3574047 C96.852567,15.9991653 96.5866516,16.6446475 96.3355056,17.2938704 C96.0843596,17.9430934 95.8332173,18.5960378 95.5820713,19.2527231 C95.3752452,19.7900111 95.1684222,20.260131 94.961596,20.663097 C94.7547699,21.066063 94.536867,21.3944007 94.307881,21.64812 C94.0788949,21.9018393 93.8314459,22.092126 93.5655266,22.2189857 C93.4673464,22.2658235 93.3631254,22.3040148 93.252863,22.3335595 Z M77.1007732,15.7230572 C77.0817391,15.7060102 77.0632719,15.6885982 77.0453717,15.6708211 C76.6095595,15.2380058 76.3916566,14.6261037 76.3916566,13.8350964 L76.3916566,6.71606619 L74.6853496,6.71606619 L74.6853496,6.40264977 L76.3916566,6.40264977 L76.3916566,3.51474131 C76.509843,3.55951531 76.6206411,3.59682641 76.7240541,3.62667574 C76.8274672,3.65652508 77.0047441,3.67144952 77.2558901,3.67144952 C77.4774895,3.67144952 77.6695395,3.64533174 77.8320457,3.59309541 C77.994552,3.54085908 78.1496693,3.45504354 78.2974022,3.33564621 L78.2974022,6.40264977 L81.4440984,6.40264977 L81.4440984,6.71606619 L78.2974022,6.71606619 L78.2974022,14.0365783 C78.2974022,14.454469 78.3380282,14.7940001 78.4192813,15.0551817 C78.5005344,15.3163634 78.6076392,15.5178433 78.7405989,15.6596277 C78.8735585,15.801412 79.017596,15.8946898 79.1727156,15.9394638 C79.3278352,15.9842378 79.4792592,16.0066244 79.6269921,16.0066244 C80.1440575,16.0066244 80.5613968,15.8163378 80.8790227,15.4357588 C81.1966485,15.0551798 81.3997783,14.6186399 81.4884181,14.1261259 L81.7986557,14.2380603 C81.7543358,14.432081 81.687857,14.6484854 81.5992172,14.8872801 C81.5105774,15.1260747 81.3739265,15.3536725 81.1892603,15.5700801 C81.0045941,15.7864878 80.7645317,15.9655811 80.4690658,16.1073654 C80.1735999,16.2491497 79.804273,16.3200408 79.3610742,16.3200408 C78.8855058,16.3200408 78.4718562,16.2801737 78.1201236,16.200439 L78.1201236,26.4239893 L78.3638817,26.4239893 L82.7736883,22.5734447 L81.2003402,22.5734447 L81.2003402,22.2600283 L84.6351142,22.2600283 L84.6351142,22.5734447 L83.3055243,22.5734447 L79.8485905,25.5732876 L84.7459134,31.5505865 L85.6987862,31.5505865 L85.6987862,31.8640029 L80.7128239,31.8640029 L80.7128239,31.5505865 L82.286172,31.5505865 L78.3638817,26.7374057 L78.1201236,26.7374057 L78.1201236,31.5505865 L79.3389143,31.5505865 L79.3389143,31.8640029 L74.5080709,31.8640029 L74.5080709,31.5505865 L76.214378,31.5505865 L76.214378,16.0364736 L74.5080709,16.0364736 L74.5080709,15.7230572 L77.1007732,15.7230572 Z M57.3200074,15.9793124 C57.7020608,16.0437322 58.0465753,16.1336776 58.3535532,16.249149 C59.0478981,16.5103307 59.5945019,16.8312062 59.9933808,17.2117852 C60.3922598,17.5923642 60.6655617,18.0027863 60.8132946,18.443064 C60.9610276,18.8833416 61.0348929,19.2825705 61.0348929,19.6407625 C61.0348929,20.1332764 60.9277882,20.5884719 60.7135754,21.0063626 C60.4993626,21.4242532 60.2112877,21.7899021 59.8493419,22.1033201 C59.4873962,22.4167381 59.0700569,22.6704536 58.5973114,22.8644742 C58.124566,23.0584949 57.629668,23.1853527 57.1126026,23.2450513 L57.1126026,23.2898251 C57.6444413,23.3345991 58.1873517,23.4502635 58.7413503,23.6368218 C59.2953489,23.8233802 59.7976334,24.0845579 60.2482189,24.4203629 C60.6988044,24.7561679 61.064438,25.1703212 61.3451306,25.6628351 C61.6258232,26.1553491 61.7661674,26.7224779 61.7661674,27.3642386 C61.7661674,28.0358486 61.6405963,28.6514818 61.3894503,29.2111568 C61.1383042,29.7708318 60.7615909,30.252145 60.2592988,30.655111 C59.7570068,31.058077 59.1217646,31.3752214 58.3535532,31.6065537 C57.5853419,31.8378861 56.6915709,31.9535505 55.6722136,31.9535505 C55.4653874,31.9535505 55.2622577,31.9498194 55.0628182,31.942357 C54.8633787,31.9348947 54.6528624,31.9237014 54.431263,31.9087767 C54.2096635,31.893852 53.9806809,31.8826587 53.7443082,31.8751964 C53.5079354,31.867734 53.2567932,31.8640029 52.9908739,31.8640029 L49.1129032,31.8640029 L49.1129032,31.5505865 L51.5726446,31.5505865 L51.5726446,16.2379556 L49.1129032,16.2379556 L49.1129032,16.0066244 L49.1129032,15.693208 L51.5726446,15.693208 L51.5726446,0.380577084 L49.1129032,0.380577084 L49.1129032,0.0671606619 L52.9908739,0.0671606619 C53.2124733,0.0671606619 53.4377627,0.0634295513 53.6667487,0.0559672183 C53.8957348,0.0485048852 54.1284107,0.0373115535 54.3647835,0.0223868873 C54.6011562,0.0223868873 54.8301388,0.0186557767 55.0517383,0.0111934437 C55.2733377,0.00373111057 55.4875473,0 55.6943734,0 C56.7728239,0 57.6592084,0.13058887 58.3535532,0.391770528 C59.0478981,0.652952186 59.5945019,0.973827695 59.9933808,1.35440668 C60.3922598,1.73498567 60.6655617,2.14540783 60.8132946,2.58568548 C60.9610276,3.02596314 61.0348929,3.42519197 61.0348929,3.78338395 C61.0348929,4.27589794 60.9277882,4.73109343 60.7135754,5.14898408 C60.4993626,5.56687473 60.2112877,5.93252357 59.8493419,6.24594156 C59.4873962,6.55935955 59.0700569,6.81307507 58.5973114,7.00709573 C58.124566,7.20111639 57.629668,7.32797415 57.1126026,7.38767281 L57.1126026,7.43244659 C57.6444413,7.47722058 58.1873517,7.59288501 58.7413503,7.77944334 C59.2953489,7.96600167 59.7976334,8.22717941 60.2482189,8.56298439 C60.6988044,8.89878938 61.064438,9.31294266 61.3451306,9.80545664 C61.6258232,10.2979706 61.7661674,10.8650994 61.7661674,11.5068601 C61.7661674,12.1784701 61.6405963,12.7941033 61.3894503,13.3537783 C61.1383042,13.9134533 60.7615909,14.3947665 60.2592988,14.7977325 C59.7570068,15.2006985 59.1217646,15.5178429 58.3535532,15.7491752 C58.0311532,15.8462599 57.6866386,15.9229722 57.3200074,15.9793124 Z M53.7886278,7.29812526 L55.8273324,7.29812526 C56.2409846,7.29812526 56.617698,7.24588971 56.9574838,7.14141705 C57.2972696,7.03694439 57.5890378,6.85411997 57.8327972,6.59293831 C58.0765566,6.33175665 58.2649133,5.97730115 58.3978729,5.52956116 C58.5308326,5.08182118 58.5973114,4.51469237 58.5973114,3.82815773 C58.5973114,3.05207509 58.4975932,2.42897962 58.2981537,1.95885264 C58.0987142,1.48872566 57.8401854,1.13427015 57.5225595,0.895475492 C57.2049337,0.656680834 56.8503799,0.49997419 56.4588876,0.425350859 C56.0673953,0.350727528 55.6796021,0.313416422 55.2954964,0.313416422 C55.0295771,0.313416422 54.7599685,0.317147533 54.4866625,0.324609866 C54.2133566,0.332072199 53.9806807,0.350727752 53.7886278,0.380577084 L53.7886278,7.29812526 Z M53.7886278,15.693208 C53.9659074,15.7081327 54.1616506,15.7267882 54.3758634,15.7491752 C54.5900762,15.7715622 54.8966174,15.7827556 55.2954964,15.7827556 C55.9898413,15.7827556 56.5844575,15.7155956 57.0793629,15.5812736 C57.5742683,15.4469516 57.9805278,15.2118916 58.2981537,14.8760866 C58.6157795,14.5402816 58.8484554,14.0962795 58.9961884,13.5440668 C59.1439213,12.9918542 59.2177867,12.2978676 59.2177867,11.4620863 C59.2177867,10.268113 58.9666444,9.32787314 58.4643524,8.6413385 C57.9620604,7.95480386 57.2160201,7.61154168 56.2262094,7.61154168 L53.7886278,7.61154168 L53.7886278,15.693208 Z M71.0289773,10.1412599 C71.0585238,9.93231462 71.0732969,9.73829687 71.0732969,9.55920088 L71.0732969,8.9995287 C71.0732969,8.49209005 71.0252844,8.07420566 70.929258,7.74586301 C70.8332316,7.41752035 70.7002739,7.15634261 70.530381,6.96232195 C70.3604881,6.76830129 70.1536651,6.6302502 69.9099057,6.54816454 C69.6661464,6.46607887 69.4039243,6.42503666 69.1232317,6.42503666 C68.6209396,6.42503666 68.2072936,6.52577664 67.8822811,6.72725964 C67.5572686,6.92874263 67.2987398,7.2011137 67.106687,7.54438102 C66.9146341,7.88764834 66.7705967,8.28314606 66.6745702,8.73088605 C66.5785438,9.17862603 66.5157583,9.64874597 66.4862117,10.1412599 L71.0289773,10.1412599 Z M66.4640518,10.4546764 C66.4640518,10.603923 66.4603586,10.7568986 66.4529719,10.9136076 C66.4455853,11.0703166 66.441892,11.2680654 66.441892,11.5068601 C66.441892,11.9993741 66.4714381,12.5142673 66.5305313,13.0515553 C66.5896245,13.5888433 66.7188889,14.0738877 66.9183284,14.506703 C67.1177679,14.9395183 67.4132293,15.2977049 67.8047217,15.5812736 C68.196214,15.8648422 68.7169648,16.0066244 69.3669898,16.0066244 C70.0170148,16.0066244 70.5525388,15.9096155 70.9735777,15.7155949 C71.3946166,15.5215742 71.7270108,15.2865143 71.9707701,15.0104079 C72.2145295,14.7343016 72.3954997,14.4544683 72.513686,14.1708997 C72.6318724,13.887331 72.7205108,13.6560022 72.779604,13.4769062 L73.1120015,13.5440668 C73.0676816,13.7082381 72.9827364,13.9432981 72.8571634,14.2492538 C72.7315904,14.5552094 72.5321539,14.8611605 72.2588479,15.1671161 C71.985542,15.4730718 71.6162151,15.7417118 71.1508563,15.9730441 C70.6854975,16.2043764 70.0834948,16.3200408 69.34483,16.3200408 C68.6061652,16.3200408 67.9229106,16.2006453 67.2950455,15.9618506 C66.6671805,15.723056 66.12427,15.3797938 65.6662979,14.9320538 C65.2083257,14.4843138 64.8537719,13.950765 64.6026259,13.3313914 C64.3514799,12.7120177 64.2259088,12.0217623 64.2259088,11.2606043 C64.2259088,10.603919 64.3551732,9.9658991 64.6137058,9.34652545 C64.8722385,8.7271518 65.2267923,8.17867855 65.6773778,7.70108923 C66.1279633,7.22349992 66.6561007,6.83919553 67.2618058,6.54816454 C67.8675109,6.25713355 68.5175261,6.11162023 69.211871,6.11162023 C69.6255233,6.11162023 70.0687155,6.18624245 70.541461,6.33548911 C71.0142064,6.48473577 71.4537053,6.72725796 71.859971,7.06306295 C72.2662366,7.39886793 72.6060173,7.84287009 72.8793232,8.39508274 C73.1526292,8.94729539 73.2892801,9.63381973 73.2892801,10.4546764 L66.4640518,10.4546764 Z M82.9288071,12.8724602 L83.1725653,12.8724602 C83.2759784,13.2306522 83.408936,13.5925699 83.5714423,13.9582242 C83.7339485,14.3238786 83.9518514,14.6596785 84.2251573,14.9656342 C84.4984633,15.2715898 84.8345507,15.5215742 85.2334297,15.7155949 C85.6323087,15.9096155 86.1124336,16.0066244 86.6738188,16.0066244 C87.1465642,16.0066244 87.5675968,15.8611111 87.9369292,15.5700801 C88.3062616,15.2790491 88.490925,14.8051981 88.490925,14.1485128 C88.490925,13.5813755 88.3468876,13.1821466 88.0588083,12.9508143 C87.770729,12.719482 87.4346416,12.5366576 87.0505359,12.4023356 L85.322069,11.7978896 C85.1004696,11.7232663 84.8604071,11.6299885 84.6018745,11.5180535 C84.3433418,11.4061185 84.1032794,11.2494119 83.8816799,11.0479289 C83.6600805,10.8464459 83.4791103,10.5889993 83.338764,10.2755813 C83.1984177,9.96216328 83.1282456,9.55920334 83.1282456,9.06668936 C83.1282456,8.64879871 83.2094975,8.26076321 83.3720038,7.90257122 C83.53451,7.54437923 83.7561061,7.23096594 84.0367988,6.96232195 C84.3174914,6.69367796 84.6535788,6.48473577 85.0450711,6.33548911 C85.4365634,6.18624245 85.8612893,6.11162023 86.3192615,6.11162023 C86.644274,6.11162023 86.906496,6.13773801 87.1059355,6.18997434 C87.305375,6.24221067 87.4789586,6.29444622 87.6266916,6.34668255 C87.7744245,6.39891888 87.9073822,6.45115443 88.0255685,6.50339076 C88.1437549,6.55562709 88.2840991,6.58174487 88.4466054,6.58174487 C88.6091116,6.58174487 88.7272962,6.5220471 88.8011627,6.40264977 L89.0449208,6.40264977 L89.0449208,8.95475492 L88.8011627,8.95475492 C88.6977496,8.62641227 88.579565,8.30926787 88.4466054,8.00331221 C88.3136457,7.69735656 88.1548352,7.42498548 87.970169,7.18619083 C87.7855028,6.94739617 87.5565201,6.76084064 87.2832142,6.62651864 C87.0099082,6.49219665 86.6885938,6.42503666 86.3192615,6.42503666 C85.6101433,6.42503666 85.0598463,6.58547441 84.668354,6.90635473 C84.2768616,7.22723506 84.0811184,7.65631277 84.0811184,8.19360075 C84.0811184,8.67119007 84.2473155,9.0331078 84.5797146,9.27936479 C84.9121138,9.52562178 85.4033185,9.75321953 86.0533435,9.96216485 L87.6710112,10.4994501 C88.3653561,10.7382448 88.9341194,11.0665825 89.3773183,11.4844732 C89.8205172,11.9023638 90.0421133,12.4545682 90.0421133,13.1411028 C90.0421133,13.5440688 89.9645546,13.9395666 89.809435,14.3276079 C89.6543154,14.7156492 89.4253328,15.0551803 89.1224802,15.3462112 C88.8196277,15.6372422 88.4503008,15.8723022 88.0144886,16.0513982 C87.5786764,16.2304942 87.0800852,16.3200408 86.5187,16.3200408 C86.1936875,16.3200408 85.8945327,16.2864609 85.6212268,16.2192999 C85.3479208,16.1521389 85.0967785,16.0812478 84.8677925,16.0066244 C84.6388064,15.9320011 84.4282901,15.86111 84.2362372,15.793949 C84.0441844,15.726788 83.8669075,15.693208 83.7044013,15.693208 C83.541895,15.693208 83.4237104,15.726788 83.349844,15.793949 C83.2759775,15.86111 83.2168852,15.9320011 83.1725653,16.0066244 L82.9288071,16.0066244 L82.9288071,12.8724602 Z M53.7886278,23.1555038 L55.8273324,23.1555038 C56.2409846,23.1555038 56.617698,23.1032682 56.9574838,22.9987956 C57.2972696,22.8943229 57.5890378,22.7114985 57.8327972,22.4503168 C58.0765566,22.1891352 58.2649133,21.8346797 58.3978729,21.3869397 C58.5308326,20.9391997 58.5973114,20.3720709 58.5973114,19.6855362 C58.5973114,18.9094536 58.4975932,18.2863581 58.2981537,17.8162311 C58.0987142,17.3461042 57.8401854,16.9916487 57.5225595,16.752854 C57.2049337,16.5140593 56.8503799,16.3573527 56.4588876,16.2827294 C56.0673953,16.208106 55.6796021,16.1707949 55.2954964,16.1707949 C55.0295771,16.1707949 54.7599685,16.174526 54.4866625,16.1819884 C54.2133566,16.1894507 53.9806807,16.2081063 53.7886278,16.2379556 L53.7886278,23.1555038 Z M53.7886278,31.5505865 C53.9659074,31.5655112 54.1616506,31.5841667 54.3758634,31.6065537 C54.5900762,31.6289407 54.8966174,31.6401341 55.2954964,31.6401341 C55.9898413,31.6401341 56.5844575,31.5729741 57.0793629,31.4386521 C57.5742683,31.3043301 57.9805278,31.0692701 58.2981537,30.7334651 C58.6157795,30.3976601 58.8484554,29.953658 58.9961884,29.4014453 C59.1439213,28.8492327 59.2177867,28.1552461 59.2177867,27.3194648 C59.2177867,26.1254915 58.9666444,25.1852517 58.4643524,24.498717 C57.9620604,23.8121824 57.2160201,23.4689202 56.2262094,23.4689202 L53.7886278,23.4689202 L53.7886278,31.5505865 Z M69.9431455,26.3792155 L69.8988258,26.3792155 C69.8692792,26.5732362 69.6255235,26.767254 69.1675514,26.9612746 L67.5055639,27.6328812 C67.0328185,27.8269019 66.6708782,28.099273 66.4197322,28.4500026 C66.1685861,28.8007323 66.043015,29.2372722 66.043015,29.7596355 C66.043015,29.9835055 66.0651746,30.2148344 66.1094945,30.453629 C66.1538144,30.6924237 66.2350663,30.905097 66.3532527,31.0916553 C66.471439,31.2782136 66.6376361,31.4311892 66.8518489,31.5505865 C67.0660617,31.6699838 67.3430568,31.7296816 67.6828426,31.7296816 C68.1703613,31.7296816 68.5655411,31.6252105 68.8683936,31.4162652 C69.1712462,31.2073199 69.4002288,30.9461421 69.5553484,30.6327241 C69.710468,30.3193061 69.8138795,29.9797751 69.8655861,29.6141208 C69.9172926,29.2484664 69.9431455,28.9163976 69.9431455,28.6179043 L69.9431455,26.3792155 Z M73.8211161,31.6177472 C73.6290633,31.7669938 73.4000806,31.8975827 73.1341613,32.0095177 C72.868242,32.1214527 72.5432344,32.1774194 72.1591287,32.1774194 C71.4500105,32.1774194 70.9366462,32.0244438 70.6190204,31.7184882 C70.3013945,31.4125325 70.0834917,30.9834548 69.9653053,30.4312421 L69.9209856,30.4312421 C69.8618925,30.5655641 69.7806406,30.7334641 69.6772275,30.9349471 C69.5738144,31.1364301 69.4150039,31.3304479 69.2007911,31.5170062 C68.9865783,31.7035645 68.7021967,31.8602712 68.3476376,31.9871308 C67.9930785,32.1139905 67.5424997,32.1774194 66.9958878,32.1774194 C66.3754094,32.1774194 65.8805114,32.1065283 65.511179,31.9647439 C65.1418467,31.8229596 64.8537717,31.6475974 64.6469456,31.4386521 C64.4401195,31.2297067 64.3034685,30.9946468 64.2369887,30.7334651 C64.1705089,30.4722835 64.1372694,30.2297613 64.1372694,30.0058913 C64.1372694,29.483528 64.240681,29.0656436 64.4475071,28.7522256 C64.6543332,28.4388076 64.9239418,28.1888232 65.256341,28.0022649 C65.5887401,27.8157065 65.958067,27.662731 66.3643326,27.5433337 C66.7705982,27.4239364 67.180551,27.2970786 67.5942033,27.1627566 C68.081722,26.9985853 68.4842883,26.8568031 68.8019141,26.7374057 C69.11954,26.6180084 69.366989,26.4724951 69.5442685,26.3008614 C69.721548,26.1292278 69.8434259,25.9128234 69.9099057,25.6516417 C69.9763856,25.39046 70.009625,25.0360045 70.009625,24.5882646 C70.009625,24.2300726 69.9874654,23.9091971 69.9431455,23.6256284 C69.8988256,23.3420597 69.8175737,23.0995376 69.6993873,22.8980546 C69.581201,22.6965716 69.4113106,22.543596 69.1897112,22.4391234 C68.9681118,22.3346507 68.6726503,22.2824152 68.3033179,22.2824152 C67.8157992,22.2824152 67.4132329,22.3682307 67.095607,22.5398644 C66.7779812,22.711498 66.6191707,22.9913313 66.6191707,23.3793726 C66.6191707,23.633092 66.6413303,23.8830764 66.6856501,24.1293334 C66.72997,24.3755904 66.7521296,24.5584148 66.7521296,24.6778121 C66.7521296,24.8867574 66.6782643,25.0621196 66.5305313,25.203904 C66.3827984,25.3456883 66.1685888,25.4165794 65.8878962,25.4165794 C65.4003774,25.4165794 65.0975294,25.3270327 64.9793431,25.1479367 C64.8611567,24.9688407 64.8020644,24.7375119 64.8020644,24.4539432 C64.8020644,24.1256006 64.8759298,23.8121873 65.0236627,23.513694 C65.1713957,23.2152006 65.3892985,22.9502918 65.6773778,22.7189595 C65.965457,22.4876271 66.3273974,22.3048027 66.7632096,22.1704807 C67.1990218,22.0361587 67.697613,21.9689987 68.2589982,21.9689987 C68.9385698,21.9689987 69.5073332,22.0548143 69.9653053,22.2264479 C70.4232775,22.3980816 70.7926043,22.6294105 71.0732969,22.9204415 C71.3539895,23.2114724 71.553426,23.5398102 71.6716124,23.9054645 C71.7897988,24.2711188 71.848891,24.6554232 71.848891,25.0583892 L71.848891,30.6327241 C71.848891,31.0655394 71.9153699,31.3565661 72.0483295,31.5058127 C72.1812892,31.6550594 72.3733392,31.7296816 72.6244852,31.7296816 C72.7869914,31.7296816 72.9568818,31.6998327 73.1341613,31.6401341 C73.3114409,31.5804354 73.4813312,31.4908887 73.6438375,31.3714914 L73.8211161,31.6177472 Z M93.3660881,25.9986385 C93.3956347,25.7896931 93.4104078,25.5956754 93.4104078,25.4165794 L93.4104078,24.8569072 C93.4104078,24.3494686 93.3623953,23.9315842 93.2663689,23.6032415 C93.1703424,23.2748989 93.0373848,23.0137211 92.8674919,22.8197005 C92.697599,22.6256798 92.4907759,22.4876287 92.2470166,22.405543 C92.0032572,22.3234574 91.7410351,22.2824152 91.4603425,22.2824152 C90.9580505,22.2824152 90.5444044,22.3831552 90.2193919,22.5846381 C89.8943794,22.7861211 89.6358506,23.0584922 89.4437978,23.4017595 C89.251745,23.7450269 89.1077075,24.1405246 89.0116811,24.5882646 C88.9156547,25.0360045 88.8528691,25.5061245 88.8233225,25.9986385 L93.3660881,25.9986385 Z M97.8866939,28.7298387 L98.130452,28.7298387 C98.2338651,29.0880307 98.3668228,29.4499484 98.529329,29.8156027 C98.6918353,30.1812571 98.9097381,30.517057 99.1830441,30.8230127 C99.45635,31.1289683 99.7924374,31.3789527 100.191316,31.5729734 C100.590195,31.7669941 101.07032,31.8640029 101.631706,31.8640029 C102.104451,31.8640029 102.525484,31.7184896 102.894816,31.4274586 C103.264148,31.1364276 103.448812,30.6625766 103.448812,30.0058913 C103.448812,29.438754 103.304774,29.0395251 103.016695,28.8081928 C102.728616,28.5768605 102.392528,28.3940361 102.008423,28.2597141 L100.279956,27.6552681 C100.058356,27.5806448 99.8182939,27.487367 99.5597612,27.375432 C99.3012285,27.263497 99.0611661,27.1067904 98.8395667,26.9053074 C98.6179672,26.7038244 98.4369971,26.4463778 98.2966508,26.1329598 C98.1563045,25.8195418 98.0861324,25.4165819 98.0861324,24.9240679 C98.0861324,24.5061772 98.1673843,24.1181417 98.3298905,23.7599497 C98.4923968,23.4017577 98.7139929,23.0883445 98.9946855,22.8197005 C99.2753781,22.5510565 99.6114655,22.3421143 100.002958,22.1928676 C100.39445,22.043621 100.819176,21.9689987 101.277148,21.9689987 C101.602161,21.9689987 101.864383,21.9951165 102.063822,22.0473528 C102.263262,22.0995892 102.436845,22.1518247 102.584578,22.2040611 C102.732311,22.2562974 102.865269,22.3085329 102.983455,22.3607693 C103.101642,22.4130056 103.241986,22.4391234 103.404492,22.4391234 C103.566998,22.4391234 103.685183,22.3794256 103.759049,22.2600283 L104.002808,22.2600283 L104.002808,24.8121334 L103.759049,24.8121334 C103.655636,24.4837908 103.537452,24.1666464 103.404492,23.8606907 C103.271532,23.5547351 103.112722,23.282364 102.928056,23.0435693 C102.743389,22.8047747 102.514407,22.6182191 102.241101,22.4838972 C101.967795,22.3495752 101.646481,22.2824152 101.277148,22.2824152 C100.56803,22.2824152 100.017733,22.4428529 99.6262407,22.7637332 C99.2347484,23.0846136 99.0390051,23.5136913 99.0390051,24.0509793 C99.0390051,24.5285686 99.2052022,24.8904863 99.5376014,25.1367433 C99.8700005,25.3830003 100.361205,25.610598 101.01123,25.8195434 L102.628898,26.3568287 C103.323243,26.5956233 103.892006,26.923961 104.335205,27.3418517 C104.778404,27.7597423 105,28.3119467 105,28.9984814 C105,29.4014473 104.922441,29.7969451 104.767322,30.1849864 C104.612202,30.5730277 104.38322,30.9125588 104.080367,31.2035898 C103.777514,31.4946207 103.408188,31.7296807 102.972375,31.9087767 C102.536563,32.0878727 102.037972,32.1774194 101.476587,32.1774194 C101.151574,32.1774194 100.852419,32.1438394 100.579113,32.0766784 C100.305808,32.0095174 100.054665,31.9386263 99.8256792,31.8640029 C99.5966931,31.7893796 99.3861768,31.7184885 99.194124,31.6513275 C99.0020711,31.5841665 98.8247942,31.5505865 98.662288,31.5505865 C98.4997817,31.5505865 98.3815972,31.5841665 98.3077307,31.6513275 C98.2338642,31.7184885 98.1747719,31.7893796 98.130452,31.8640029 L97.8866939,31.8640029 L97.8866939,28.7298387 Z" id="Betsy-Bakes"></path>
            <g id="bb">
                <path d="M29.9719349,14.5894836 L33.7757948,14.5894836 C34.5475963,14.5894836 35.2504764,14.4850609 35.8844562,14.2762125 C36.5184361,14.067364 37.0628236,13.7018847 37.5176352,13.1797636 C37.9724468,12.6576424 38.3238869,11.9490601 38.5719659,11.0539952 C38.820045,10.1589304 38.9440826,9.02519866 38.9440826,7.65276594 C38.9440826,6.10132025 38.7580261,4.85570706 38.3859076,3.915889 C38.013789,2.97607094 37.5314203,2.26748859 36.938787,1.79012069 C36.3461537,1.31275278 35.6846194,0.999484796 34.9541644,0.850307326 C34.2237094,0.701129857 33.5001564,0.626542241 32.7834835,0.626542241 C32.2873254,0.626542241 31.7842838,0.634001002 31.2743435,0.648918749 C30.7644032,0.663836496 30.3302713,0.701130304 29.9719349,0.760801292 L29.9719349,14.5894836 Z M29.9719349,31.371865 C30.302707,31.4017005 30.667929,31.4389943 31.067612,31.4837476 C31.4672949,31.5285008 32.0392464,31.5508771 32.7834835,31.5508771 C34.0790075,31.5508771 35.1884555,31.4166194 36.1118609,31.1481 C37.0352663,30.8795805 37.7932743,30.4096785 38.3859076,29.7383799 C38.9785409,29.0670813 39.4126727,28.1794887 39.6883161,27.0755754 C39.9639595,25.9716621 40.1017791,24.5843325 40.1017791,22.9135448 C40.1017791,20.5267053 39.6331924,18.6470974 38.6960048,17.2746646 C37.7588173,15.9022319 36.366839,15.2160258 34.5200282,15.2160258 L29.9719349,15.2160258 L29.9719349,31.371865 Z M21.247865,31.371865 L25.8373046,31.371865 L25.8373046,0.760801292 L21.247865,0.760801292 L21.247865,0.134259052 L28.483468,0.134259052 C28.8969331,0.134259052 29.317283,0.12680029 29.7445303,0.111882543 C30.1717775,0.096964796 30.6059094,0.0745885111 31.0469388,0.0447530172 C31.4879682,0.0447530172 31.9152091,0.0372942556 32.3286742,0.0223765086 C32.7421393,0.00745876161 33.1418162,0 33.527717,0 C35.5399138,0 37.1937494,0.261056656 38.4892733,0.783177801 C39.7847973,1.30529895 40.8046626,1.94675244 41.5488997,2.70755754 C42.2931369,3.46836264 42.8030695,4.28882641 43.0787129,5.16897348 C43.3543563,6.04912056 43.492176,6.84720805 43.492176,7.5632599 C43.492176,8.5478312 43.2923375,9.45780012 42.8926546,10.293194 C42.4929716,11.1285878 41.9554751,11.8595464 41.2801488,12.4860918 C40.6048224,13.1126372 39.8261415,13.619833 38.9440826,14.0076944 C38.0620238,14.3955558 37.1386322,14.6491537 36.1738804,14.7684957 L36.1738804,14.8580017 C37.1661966,14.9475082 38.1791709,15.1787298 39.2128336,15.5516735 C40.2464964,15.9246171 41.1836698,16.4467305 42.0243822,17.1180291 C42.8650946,17.7893277 43.5473017,18.6172502 44.0710242,19.6018215 C44.5947467,20.5863928 44.856604,21.7201246 44.856604,23.0030508 C44.856604,24.3456481 44.6223106,25.5763437 44.1537168,26.6951747 C43.685123,27.8140058 42.9822429,28.776186 42.0450554,29.5817444 C41.1078678,30.3873027 39.922619,31.0212974 38.4892733,31.4837476 C37.0559277,31.9461977 35.3883101,32.1774194 33.4863707,32.1774194 C33.1004699,32.1774194 32.7214659,32.1699606 32.3493473,32.1550428 C31.9772288,32.1401251 31.5844428,32.1177488 31.1709777,32.0879133 C30.7575126,32.0580778 30.3302718,32.0357015 29.8892423,32.0207838 C29.4482129,32.005866 28.9796261,31.9984073 28.483468,31.9984073 L21.247865,31.9984073 L21.247865,31.371865 Z" id="B"></path>
                <path d="M8.7240699,14.5894836 L12.5279298,14.5894836 C13.2997313,14.5894836 14.0026114,14.4850609 14.6365912,14.2762125 C15.270571,14.067364 15.8149586,13.7018847 16.2697702,13.1797636 C16.7245818,12.6576424 17.0760218,11.9490601 17.3241009,11.0539952 C17.5721799,10.1589304 17.6962176,9.02519866 17.6962176,7.65276594 C17.6962176,6.10132025 17.5101611,4.85570706 17.1380425,3.915889 C16.7659239,2.97607094 16.2835552,2.26748859 15.6909219,1.79012069 C15.0982886,1.31275278 14.4367544,0.999484796 13.7062994,0.850307326 C12.9758444,0.701129857 12.2522913,0.626542241 11.5356185,0.626542241 C11.0394604,0.626542241 10.5364187,0.634001002 10.0264784,0.648918749 C9.51653816,0.663836496 9.08240632,0.701130304 8.7240699,0.760801292 L8.7240699,14.5894836 Z M8.7240699,31.371865 C9.05484198,31.4017005 9.420064,31.4389943 9.81974693,31.4837476 C10.2194299,31.5285008 10.7913813,31.5508771 11.5356185,31.5508771 C12.8311425,31.5508771 13.9405905,31.4166194 14.8639959,31.1481 C15.7874013,30.8795805 16.5454092,30.4096785 17.1380425,29.7383799 C17.7306758,29.0670813 18.1648077,28.1794887 18.4404511,27.0755754 C18.7160945,25.9716621 18.8539141,24.5843325 18.8539141,22.9135448 C18.8539141,20.5267053 18.3853274,18.6470974 17.4481398,17.2746646 C16.5109523,15.9022319 15.118974,15.2160258 13.2721632,15.2160258 L8.7240699,15.2160258 L8.7240699,31.371865 Z M0,31.371865 L4.58943962,31.371865 L4.58943962,0.760801292 L0,0.760801292 L0,0.134259052 L7.235603,0.134259052 C7.64906809,0.134259052 8.06941797,0.12680029 8.49666523,0.111882543 C8.9239125,0.096964796 9.35804434,0.0745885111 9.79907377,0.0447530172 C10.2401032,0.0447530172 10.6673441,0.0372942556 11.0808092,0.0223765086 C11.4942743,0.00745876161 11.8939512,0 12.2798519,0 C14.2920487,0 15.9458843,0.261056656 17.2414083,0.783177801 C18.5369323,1.30529895 19.5567975,1.94675244 20.3010347,2.70755754 C21.0452719,3.46836264 21.5552045,4.28882641 21.8308479,5.16897348 C22.1064913,6.04912056 22.2443109,6.84720805 22.2443109,7.5632599 C22.2443109,8.5478312 22.0444725,9.45780012 21.6447895,10.293194 C21.2451066,11.1285878 20.7076101,11.8595464 20.0322837,12.4860918 C19.3569574,13.1126372 18.5782765,13.619833 17.6962176,14.0076944 C16.8141587,14.3955558 15.8907672,14.6491537 14.9260153,14.7684957 L14.9260153,14.8580017 C15.9183316,14.9475082 16.9313058,15.1787298 17.9649686,15.5516735 C18.9986313,15.9246171 19.9358048,16.4467305 20.7765172,17.1180291 C21.6172295,17.7893277 22.2994367,18.6172502 22.8231592,19.6018215 C23.3468816,20.5863928 23.6087389,21.7201246 23.6087389,23.0030508 C23.6087389,24.3456481 23.3744456,25.5763437 22.9058518,26.6951747 C22.437258,27.8140058 21.7343779,28.776186 20.7971903,29.5817444 C19.8600028,30.3873027 18.674754,31.0212974 17.2414083,31.4837476 C15.8080626,31.9461977 14.1404451,32.1774194 12.2385056,32.1774194 C11.8526049,32.1774194 11.4736009,32.1699606 11.1014823,32.1550428 C10.7293637,32.1401251 10.3365778,32.1177488 9.92311268,32.0879133 C9.50964759,32.0580778 9.08240673,32.0357015 8.64137729,32.0207838 C8.20034786,32.005866 7.73176111,31.9984073 7.235603,31.9984073 L0,31.9984073 L0,31.371865 Z" id="B-Copy" transform="translate(11.804369, 16.088710) scale(-1, 1) translate(-11.804369, -16.088710) "></path>
            </g>
        </g>
    </g>
</svg>