<?xml version="1.0" encoding="UTF-8"?>
<svg width="226px" height="70px" viewBox="0 0 226 70" version="1.1" xmlns="http://www.w3.org/2000/svg" xmlns:xlink="http://www.w3.org/1999/xlink">
    <!-- Generator: Sketch 48.1 (47250) - http://www.bohemiancoding.com/sketch -->
    <title>logoWhite</title>
    <desc>Created with Sketch.</desc>
    <defs></defs>
    <g id="logo" stroke="none" stroke-width="1" fill="none" fill-rule="evenodd" transform="translate(-154.000000, -115.000000)">
        <g id="logoWhite" transform="translate(154.000000, 115.000000)" fill="#FFFFFF">
            <path d="M200.050745,48.5656592 C200.770971,48.8782338 201.452718,49.2976788 202.096,49.824 C202.976004,50.5440036 203.711997,51.4959941 204.304,52.68 C204.896003,53.8640059 205.192,55.3359912 205.192,57.096 L190.408,57.096 C190.408,57.4160016 190.4,57.7439983 190.384,58.08 C190.368,58.4160017 190.36,58.8399974 190.36,59.352 C190.36,60.4080053 190.423999,61.5119942 190.552,62.664 C190.680001,63.8160058 190.959998,64.8559954 191.392,65.784 C191.824002,66.7120046 192.463996,67.479997 193.312,68.088 C194.160004,68.696003 195.287993,69 196.696,69 C198.104007,69 199.263995,68.7920021 200.176,68.376 C201.088005,67.9599979 201.807997,67.456003 202.336,66.864 C202.864003,66.271997 203.255999,65.672003 203.512,65.064 C203.768001,64.455997 203.959999,63.9600019 204.088,63.576 L204.808,63.72 C204.712,64.0720018 204.528001,64.5759967 204.256,65.232 C203.983999,65.8880033 203.552003,66.5439967 202.96,67.2 C202.367997,67.8560033 201.568005,68.4319975 200.56,68.928 C199.551995,69.4240025 198.248008,69.672 196.648,69.672 C195.047992,69.672 193.568007,69.4160026 192.208,68.904 C190.847993,68.3919974 189.672005,67.6560048 188.68,66.696 C187.687995,65.7359952 186.920003,64.5920066 186.376,63.264 C185.831997,61.9359934 185.56,60.4560082 185.56,58.824 C185.56,57.415993 185.839997,56.0480066 186.4,54.72 C186.960003,53.3919934 187.727995,52.2160051 188.704,51.192 C189.680005,50.1679949 190.823993,49.3440031 192.136,48.72 C193.254102,48.1882197 194.44191,47.8830364 195.69945,47.8044444 C195.492364,47.6432048 195.312548,47.471057 195.16,47.288 C194.839998,46.9039981 194.632,46.5040021 194.536,46.088 C194.44,45.6719979 194.392,45.3200014 194.392,45.032 C194.392,44.231996 194.615998,43.632002 195.064,43.232 C195.512002,42.831998 196.055997,42.632 196.696,42.632 C196.920001,42.632 197.159999,42.6559998 197.416,42.704 C197.672001,42.7520002 197.911999,42.8399994 198.136,42.968 C198.360001,43.0960006 198.551999,43.2719989 198.712,43.496 C198.872001,43.7200011 198.952,43.9919984 198.952,44.312 C198.952,44.7600022 198.816001,45.183998 198.544,45.584 C198.271999,45.984002 198.136,46.4239976 198.136,46.904 C198.136,47.3200021 198.247999,47.5919994 198.472,47.72 C198.696001,47.8480006 198.999998,47.912 199.384,47.912 C199.896003,47.912 200.367998,47.7920012 200.8,47.552 C201.232002,47.3119988 201.655998,46.9200027 202.072,46.376 C202.488002,45.8319973 202.903998,45.1200044 203.32,44.24 C203.736002,43.3599956 204.199997,42.2800064 204.712,41 L206.824,35.624 L198.52,15.08 L195.208,15.08 L195.208,14.408 L206.968,14.408 L206.968,15.08 L202.936,15.08 L209.128,30.152 L215.608,15.08 L211.624,15.08 L211.624,14.408 L218.968,14.408 L218.968,15.08 L216.376,15.08 L208.456,33.608 C207.847997,34.9840069 207.272003,36.367993 206.728,37.76 C206.183997,39.152007 205.640003,40.551993 205.096,41.96 C204.647998,43.1120058 204.200002,44.1199957 203.752,44.984 C203.303998,45.8480043 202.832002,46.5519973 202.336,47.096 C201.839998,47.6400027 201.304003,48.0479986 200.728,48.32 C200.515334,48.4204257 200.289583,48.502312 200.050745,48.5656592 Z M165.064004,34.392 C165.022775,34.3554495 164.982773,34.3181161 164.944,34.28 C163.999995,33.3519954 163.528,32.0400085 163.528,30.344 L163.528,15.08 L159.832,15.08 L159.832,14.408 L163.528,14.408 L163.528,8.216 C163.784001,8.31200048 164.023999,8.39199968 164.248,8.456 C164.472001,8.52000032 164.855997,8.552 165.4,8.552 C165.880002,8.552 166.295998,8.49600056 166.648,8.384 C167.000002,8.27199944 167.335998,8.08800128 167.656,7.832 L167.656,14.408 L174.472,14.408 L174.472,15.08 L167.656,15.08 L167.656,30.776 C167.656,31.6720045 167.743999,32.3999972 167.92,32.96 C168.096001,33.5200028 168.327999,33.9519985 168.616,34.256 C168.904001,34.5600015 169.215998,34.7599995 169.552,34.856 C169.888002,34.9520005 170.215998,35 170.536,35 C171.656006,35 172.559997,34.5920041 173.248,33.776 C173.936003,32.9599959 174.375999,32.0240053 174.568,30.968 L175.24,31.208 C175.144,31.6240021 175.000001,32.0879974 174.808,32.6 C174.615999,33.1120026 174.320002,33.5999977 173.92,34.064 C173.519998,34.5280023 173.000003,34.9119985 172.36,35.216 C171.719997,35.5200015 170.920005,35.672 169.96,35.672 C168.92988,35.672 168.033882,35.5865204 167.272,35.4155602 L167.272,57.336 L167.8,57.336 L177.352,49.08 L173.944,49.08 L173.944,48.408 L181.384,48.408 L181.384,49.08 L178.504,49.08 L171.016,55.512 L181.624,68.328 L183.688,68.328 L183.688,69 L172.888,69 L172.888,68.328 L176.296,68.328 L167.8,58.008 L167.272,58.008 L167.272,68.328 L169.912,68.328 L169.912,69 L159.448,69 L159.448,68.328 L163.144,68.328 L163.144,35.064 L159.448,35.064 L159.448,34.392 L165.064004,34.392 Z M122.217256,34.94144 C123.044814,35.0795631 123.791061,35.2724162 124.456,35.52 C125.960008,36.0800028 127.143996,36.7679959 128.008,37.584 C128.872004,38.4000041 129.463998,39.2799953 129.784,40.224 C130.104002,41.1680047 130.264,42.0239962 130.264,42.792 C130.264,43.8480053 130.032002,44.8239955 129.568,45.72 C129.103998,46.6160045 128.480004,47.3999966 127.696,48.072 C126.911996,48.7440034 126.008005,49.2879979 124.984,49.704 C123.959995,50.1200021 122.888006,50.3919994 121.768,50.52 L121.768,50.616 C122.920006,50.7120005 124.095994,50.959998 125.296,51.36 C126.496006,51.760002 127.583995,52.3199964 128.56,53.04 C129.536005,53.7600036 130.327997,54.6479947 130.936,55.704 C131.544003,56.7600053 131.848,57.9759931 131.848,59.352 C131.848,60.7920072 131.576003,62.111994 131.032,63.312 C130.487997,64.512006 129.672005,65.5439957 128.584,66.408 C127.495995,67.2720043 126.120008,67.9519975 124.456,68.448 C122.791992,68.9440025 120.856011,69.192 118.648,69.192 C118.199998,69.192 117.760002,69.1840001 117.328,69.168 C116.895998,69.1519999 116.440002,69.1280002 115.96,69.096 C115.479998,69.0639998 114.984003,69.0400001 114.472,69.024 C113.959997,69.0079999 113.416003,69 112.84,69 L104.44,69 L104.44,68.328 L109.768,68.328 L109.768,35.496 L104.44,35.496 L104.44,35 L104.44,34.328 L109.768,34.328 L109.768,1.496 L104.44,1.496 L104.44,0.824 L112.84,0.824 C113.320002,0.824 113.807998,0.81600008 114.304,0.8 C114.800002,0.78399992 115.303997,0.76000016 115.816,0.728 C116.328003,0.728 116.823998,0.72000008 117.304,0.704 C117.784002,0.68799992 118.247998,0.68 118.696,0.68 C121.032012,0.68 122.951992,0.9599972 124.456,1.52 C125.960008,2.0800028 127.143996,2.76799592 128.008,3.584 C128.872004,4.40000408 129.463998,5.27999528 129.784,6.224 C130.104002,7.16800472 130.264,8.02399616 130.264,8.792 C130.264,9.84800528 130.032002,10.8239955 129.568,11.72 C129.103998,12.6160045 128.480004,13.3999966 127.696,14.072 C126.911996,14.7440034 126.008005,15.2879979 124.984,15.704 C123.959995,16.1200021 122.888006,16.3919994 121.768,16.52 L121.768,16.616 C122.920006,16.7120005 124.095994,16.959998 125.296,17.36 C126.496006,17.760002 127.583995,18.3199964 128.56,19.04 C129.536005,19.7600036 130.327997,20.6479947 130.936,21.704 C131.544003,22.7600053 131.848,23.9759931 131.848,25.352 C131.848,26.7920072 131.576003,28.111994 131.032,29.312 C130.487997,30.512006 129.672005,31.5439957 128.584,32.408 C127.495995,33.2720043 126.120008,33.9519975 124.456,34.448 C123.757655,34.6561605 123.011409,34.8206403 122.217256,34.94144 Z M114.568,16.328 L118.984,16.328 C119.880004,16.328 120.695996,16.2160011 121.432,15.992 C122.168004,15.7679989 122.799997,15.3760028 123.328,14.816 C123.856003,14.2559972 124.263999,13.4960048 124.552,12.536 C124.840001,11.5759952 124.984,10.3600074 124.984,8.888 C124.984,7.22399168 124.768002,5.88800504 124.336,4.88 C123.903998,3.87199496 123.344003,3.11200256 122.656,2.6 C121.967997,2.08799744 121.200004,1.7520008 120.352,1.592 C119.503996,1.4319992 118.664004,1.352 117.832,1.352 C117.255997,1.352 116.672003,1.35999992 116.08,1.376 C115.487997,1.39200008 114.984002,1.43199968 114.568,1.496 L114.568,16.328 Z M114.568,34.328 C114.952002,34.3600002 115.375998,34.3999998 115.84,34.448 C116.304002,34.4960002 116.967996,34.52 117.832,34.52 C119.336008,34.52 120.623995,34.3760014 121.696,34.088 C122.768005,33.7999986 123.647997,33.2960036 124.336,32.576 C125.024003,31.8559964 125.527998,30.9040059 125.848,29.72 C126.168002,28.5359941 126.328,27.048009 126.328,25.256 C126.328,22.6959872 125.784005,20.6800074 124.696,19.208 C123.607995,17.7359926 121.992011,17 119.848,17 L114.568,17 L114.568,34.328 Z M151.912,22.424 C151.976,21.9759978 152.008,21.5600019 152.008,21.176 L152.008,19.976 C152.008,18.8879946 151.904001,17.9920035 151.696,17.288 C151.487999,16.5839965 151.200002,16.0240021 150.832,15.608 C150.463998,15.1919979 150.016003,14.8960009 149.488,14.72 C148.959997,14.5439991 148.392003,14.456 147.784,14.456 C146.695995,14.456 145.800004,14.6719978 145.096,15.104 C144.391996,15.5360022 143.832002,16.1199963 143.416,16.856 C142.999998,17.5920037 142.688001,18.4399952 142.48,19.4 C142.271999,20.3600048 142.136,21.3679947 142.072,22.424 L151.912,22.424 Z M142.024,23.096 C142.024,23.4160016 142.016,23.7439983 142,24.08 C141.984,24.4160017 141.976,24.8399974 141.976,25.352 C141.976,26.4080053 142.039999,27.5119942 142.168,28.664 C142.296001,29.8160058 142.575998,30.8559954 143.008,31.784 C143.440002,32.7120046 144.079996,33.479997 144.928,34.088 C145.776004,34.696003 146.903993,35 148.312,35 C149.720007,35 150.879995,34.7920021 151.792,34.376 C152.704005,33.9599979 153.423997,33.456003 153.952,32.864 C154.480003,32.271997 154.871999,31.672003 155.128,31.064 C155.384001,30.455997 155.575999,29.9600019 155.704,29.576 L156.424,29.72 C156.328,30.0720018 156.144001,30.5759967 155.872,31.232 C155.599999,31.8880033 155.168003,32.5439967 154.576,33.2 C153.983997,33.8560033 153.184005,34.4319975 152.176,34.928 C151.167995,35.4240025 149.864008,35.672 148.264,35.672 C146.663992,35.672 145.184007,35.4160026 143.824,34.904 C142.463993,34.3919974 141.288005,33.6560048 140.296,32.696 C139.303995,31.7359952 138.536003,30.5920066 137.992,29.264 C137.447997,27.9359934 137.176,26.4560082 137.176,24.824 C137.176,23.415993 137.455997,22.0480066 138.016,20.72 C138.576003,19.3919934 139.343995,18.2160051 140.32,17.192 C141.296005,16.1679949 142.439993,15.3440031 143.752,14.72 C145.064007,14.0959969 146.471992,13.784 147.976,13.784 C148.872004,13.784 149.831995,13.9439984 150.856,14.264 C151.880005,14.5840016 152.831996,15.1039964 153.712,15.824 C154.592004,16.5440036 155.327997,17.4959941 155.92,18.68 C156.512003,19.8640059 156.808,21.3359912 156.808,23.096 L142.024,23.096 Z M177.688,28.28 L178.216,28.28 C178.440001,29.0480038 178.727998,29.8239961 179.08,30.608 C179.432002,31.3920039 179.903997,32.1119967 180.496,32.768 C181.088003,33.4240033 181.815996,33.9599979 182.68,34.376 C183.544004,34.7920021 184.583994,35 185.8,35 C186.824005,35 187.735996,34.6880031 188.536,34.064 C189.336004,33.4399969 189.736,32.424007 189.736,31.016 C189.736,29.7999939 189.424003,28.9440025 188.8,28.448 C188.175997,27.9519975 187.448004,27.5600014 186.616,27.272 L182.872,25.976 C182.391998,25.8159992 181.872003,25.6160012 181.312,25.376 C180.751997,25.1359988 180.232002,24.8000022 179.752,24.368 C179.271998,23.9359978 178.880002,23.3840034 178.576,22.712 C178.271998,22.0399966 178.12,21.1760053 178.12,20.12 C178.12,19.2239955 178.295998,18.3920038 178.648,17.624 C179.000002,16.8559962 179.479997,16.1840029 180.088,15.608 C180.696003,15.0319971 181.423996,14.5840016 182.272,14.264 C183.120004,13.9439984 184.039995,13.784 185.032,13.784 C185.736004,13.784 186.303998,13.8399994 186.736,13.952 C187.168002,14.0640006 187.543998,14.1759994 187.864,14.288 C188.184002,14.4000006 188.471999,14.5119994 188.728,14.624 C188.984001,14.7360006 189.287998,14.792 189.64,14.792 C189.992002,14.792 190.247999,14.6640013 190.408,14.408 L190.936,14.408 L190.936,19.88 L190.408,19.88 C190.183999,19.1759965 189.928001,18.4960033 189.64,17.84 C189.351999,17.1839967 189.008002,16.6000026 188.608,16.088 C188.207998,15.5759974 187.712003,15.1760014 187.12,14.888 C186.527997,14.5999986 185.832004,14.456 185.032,14.456 C183.495992,14.456 182.304004,14.7999966 181.456,15.488 C180.607996,16.1760034 180.184,17.0959942 180.184,18.248 C180.184,19.2720051 180.543996,20.0479974 181.264,20.576 C181.984004,21.1040026 183.047993,21.5919978 184.456,22.04 L187.96,23.192 C189.464008,23.7040026 190.695995,24.4079955 191.656,25.304 C192.616005,26.2000045 193.096,27.3839926 193.096,28.856 C193.096,29.7200043 192.928002,30.5679958 192.592,31.4 C192.255998,32.2320042 191.760003,32.9599969 191.104,33.584 C190.447997,34.2080031 189.648005,34.7119981 188.704,35.096 C187.759995,35.4800019 186.680006,35.672 185.464,35.672 C184.759996,35.672 184.112003,35.6000007 183.52,35.456 C182.927997,35.3119993 182.384002,35.1600008 181.888,35 C181.391998,34.8399992 180.936002,34.6880007 180.52,34.544 C180.103998,34.3999993 179.720002,34.328 179.368,34.328 C179.015998,34.328 178.760001,34.3999993 178.6,34.544 C178.439999,34.6880007 178.312,34.8399992 178.216,35 L177.688,35 L177.688,28.28 Z M114.568,50.328 L118.984,50.328 C119.880004,50.328 120.695996,50.2160011 121.432,49.992 C122.168004,49.7679989 122.799997,49.3760028 123.328,48.816 C123.856003,48.2559972 124.263999,47.4960048 124.552,46.536 C124.840001,45.5759952 124.984,44.3600074 124.984,42.888 C124.984,41.2239917 124.768002,39.888005 124.336,38.88 C123.903998,37.871995 123.344003,37.1120026 122.656,36.6 C121.967997,36.0879974 121.200004,35.7520008 120.352,35.592 C119.503996,35.4319992 118.664004,35.352 117.832,35.352 C117.255997,35.352 116.672003,35.3599999 116.08,35.376 C115.487997,35.3920001 114.984002,35.4319997 114.568,35.496 L114.568,50.328 Z M114.568,68.328 C114.952002,68.3600002 115.375998,68.3999998 115.84,68.448 C116.304002,68.4960002 116.967996,68.52 117.832,68.52 C119.336008,68.52 120.623995,68.3760014 121.696,68.088 C122.768005,67.7999986 123.647997,67.2960036 124.336,66.576 C125.024003,65.8559964 125.527998,64.9040059 125.848,63.72 C126.168002,62.5359941 126.328,61.048009 126.328,59.256 C126.328,56.6959872 125.784005,54.6800074 124.696,53.208 C123.607995,51.7359926 121.992011,51 119.848,51 L114.568,51 L114.568,68.328 Z M149.56,57.24 L149.464,57.24 C149.4,57.6560021 148.872005,58.0719979 147.88,58.488 L144.28,59.928 C143.255995,60.3440021 142.472003,60.9279962 141.928,61.68 C141.383997,62.4320038 141.112,63.3679944 141.112,64.488 C141.112,64.9680024 141.16,65.4639974 141.256,65.976 C141.352,66.4880026 141.527999,66.943998 141.784,67.344 C142.040001,67.744002 142.399998,68.0719987 142.864,68.328 C143.328002,68.5840013 143.927996,68.712 144.664,68.712 C145.720005,68.712 146.575997,68.4880022 147.232,68.04 C147.888003,67.5919978 148.383998,67.0320034 148.72,66.36 C149.056002,65.6879966 149.279999,64.9600039 149.392,64.176 C149.504001,63.3919961 149.56,62.6800032 149.56,62.04 L149.56,57.24 Z M157.96,68.472 C157.543998,68.7920016 157.048003,69.0719988 156.472,69.312 C155.895997,69.5520012 155.192004,69.672 154.36,69.672 C152.823992,69.672 151.712003,69.3440033 151.024,68.688 C150.335997,68.0319967 149.864001,67.1120059 149.608,65.928 L149.512,65.928 C149.383999,66.2160014 149.208001,66.5759978 148.984,67.008 C148.759999,67.4400022 148.416002,67.855998 147.952,68.256 C147.487998,68.656002 146.872004,68.9919986 146.104,69.264 C145.335996,69.5360014 144.360006,69.672 143.176,69.672 C141.831993,69.672 140.760004,69.5200015 139.96,69.216 C139.159996,68.9119985 138.536002,68.5360022 138.088,68.088 C137.639998,67.6399978 137.344001,67.1360028 137.2,66.576 C137.055999,66.0159972 136.984,65.4960024 136.984,65.016 C136.984,63.8959944 137.207998,63.0000034 137.656,62.328 C138.104002,61.6559966 138.687996,61.120002 139.408,60.72 C140.128004,60.319998 140.927996,59.9920013 141.808,59.736 C142.688004,59.4799987 143.575996,59.2080014 144.472,58.92 C145.528005,58.5679982 146.399997,58.2640013 147.088,58.008 C147.776003,57.7519987 148.311998,57.4400018 148.696,57.072 C149.080002,56.7039982 149.343999,56.2400028 149.488,55.68 C149.632001,55.1199972 149.704,54.3600048 149.704,53.4 C149.704,52.6319962 149.656,51.944003 149.56,51.336 C149.464,50.727997 149.288001,50.2080022 149.032,49.776 C148.775999,49.3439978 148.408002,49.0160011 147.928,48.792 C147.447998,48.5679989 146.808004,48.456 146.008,48.456 C144.951995,48.456 144.080003,48.6399982 143.392,49.008 C142.703997,49.3760018 142.36,49.9759958 142.36,50.808 C142.36,51.3520027 142.408,51.8879974 142.504,52.416 C142.6,52.9440026 142.648,53.3359987 142.648,53.592 C142.648,54.0400022 142.488002,54.4159985 142.168,54.72 C141.847998,55.0240015 141.384003,55.176 140.776,55.176 C139.719995,55.176 139.064001,54.9840019 138.808,54.6 C138.551999,54.2159981 138.424,53.720003 138.424,53.112 C138.424,52.4079965 138.583998,51.7360032 138.904,51.096 C139.224002,50.4559968 139.695997,49.8880025 140.32,49.392 C140.944003,48.8959975 141.727995,48.5040014 142.672,48.216 C143.616005,47.9279986 144.695994,47.784 145.912,47.784 C147.384007,47.784 148.615995,47.9679982 149.608,48.336 C150.600005,48.7040018 151.399997,49.1999969 152.008,49.824 C152.616003,50.4480031 153.047999,51.1519961 153.304,51.936 C153.560001,52.7200039 153.688,53.5439957 153.688,54.408 L153.688,66.36 C153.688,67.2880046 153.831999,67.9119984 154.12,68.232 C154.408001,68.5520016 154.823997,68.712 155.368,68.712 C155.720002,68.712 156.087998,68.6480006 156.472,68.52 C156.856002,68.3919994 157.223998,68.2000013 157.576,67.944 L157.96,68.472 Z M200.296,56.424 C200.36,55.9759978 200.392,55.5600019 200.392,55.176 L200.392,53.976 C200.392,52.8879946 200.288001,51.9920035 200.08,51.288 C199.871999,50.5839965 199.584002,50.0240021 199.216,49.608 C198.847998,49.1919979 198.400003,48.8960009 197.872,48.72 C197.343997,48.5439991 196.776003,48.456 196.168,48.456 C195.079995,48.456 194.184004,48.6719978 193.48,49.104 C192.775996,49.5360022 192.216002,50.1199963 191.8,50.856 C191.383998,51.5920037 191.072001,52.4399952 190.864,53.4 C190.655999,54.3600048 190.52,55.3679947 190.456,56.424 L200.296,56.424 Z M210.088,62.28 L210.616,62.28 C210.840001,63.0480038 211.127998,63.8239961 211.48,64.608 C211.832002,65.3920039 212.303997,66.1119967 212.896,66.768 C213.488003,67.4240033 214.215996,67.9599979 215.08,68.376 C215.944004,68.7920021 216.983994,69 218.2,69 C219.224005,69 220.135996,68.6880031 220.936,68.064 C221.736004,67.4399969 222.136,66.424007 222.136,65.016 C222.136,63.7999939 221.824003,62.9440025 221.2,62.448 C220.575997,61.9519975 219.848004,61.5600014 219.016,61.272 L215.272,59.976 C214.791998,59.8159992 214.272003,59.6160012 213.712,59.376 C213.151997,59.1359988 212.632002,58.8000022 212.152,58.368 C211.671998,57.9359978 211.280002,57.3840034 210.976,56.712 C210.671998,56.0399966 210.52,55.1760053 210.52,54.12 C210.52,53.2239955 210.695998,52.3920038 211.048,51.624 C211.400002,50.8559962 211.879997,50.1840029 212.488,49.608 C213.096003,49.0319971 213.823996,48.5840016 214.672,48.264 C215.520004,47.9439984 216.439995,47.784 217.432,47.784 C218.136004,47.784 218.703998,47.8399994 219.136,47.952 C219.568002,48.0640006 219.943998,48.1759994 220.264,48.288 C220.584002,48.4000006 220.871999,48.5119994 221.128,48.624 C221.384001,48.7360006 221.687998,48.792 222.04,48.792 C222.392002,48.792 222.647999,48.6640013 222.808,48.408 L223.336,48.408 L223.336,53.88 L222.808,53.88 C222.583999,53.1759965 222.328001,52.4960033 222.04,51.84 C221.751999,51.1839967 221.408002,50.6000026 221.008,50.088 C220.607998,49.5759974 220.112003,49.1760014 219.52,48.888 C218.927997,48.5999986 218.232004,48.456 217.432,48.456 C215.895992,48.456 214.704004,48.7999966 213.856,49.488 C213.007996,50.1760034 212.584,51.0959942 212.584,52.248 C212.584,53.2720051 212.943996,54.0479974 213.664,54.576 C214.384004,55.1040026 215.447993,55.5919978 216.856,56.04 L220.36,57.192 C221.864008,57.7040026 223.095995,58.4079955 224.056,59.304 C225.016005,60.2000045 225.496,61.3839926 225.496,62.856 C225.496,63.7200043 225.328002,64.5679958 224.992,65.4 C224.655998,66.2320042 224.160003,66.9599969 223.504,67.584 C222.847997,68.2080031 222.048005,68.7119981 221.104,69.096 C220.159995,69.4800019 219.080006,69.672 217.864,69.672 C217.159996,69.672 216.512003,69.6000007 215.92,69.456 C215.327997,69.3119993 214.784002,69.1600008 214.288,69 C213.791998,68.8399992 213.336002,68.6880007 212.92,68.544 C212.503998,68.3999993 212.120002,68.328 211.768,68.328 C211.415998,68.328 211.160001,68.3999993 211,68.544 C210.839999,68.6880007 210.712,68.8399992 210.616,69 L210.088,69 L210.088,62.28 Z" id="Betsy-Bakes"></path>
            <g id="bb" transform="translate(0.000000, 1.000000)">
                <path d="M63.4763573,31.2851182 L71.5323993,31.2851182 C73.1669667,31.2851182 74.6555683,31.0611983 75.9982487,30.6133519 C77.3409291,30.1655054 78.4938656,29.3817858 79.4570928,28.2621697 C80.4203201,27.1425535 81.1646208,25.6230972 81.6900175,23.7037552 C82.2154142,21.7844132 82.4781086,19.3532831 82.4781086,16.4102921 C82.4781086,13.0834326 82.084067,10.4123884 81.295972,8.39707928 C80.507877,6.38177017 79.4862877,4.86231388 78.2311734,3.83866481 C76.9760591,2.81501574 75.5750223,2.14325612 74.028021,1.82336579 C72.4810197,1.50347545 70.9486357,1.34353268 69.4308231,1.34353268 C68.3800298,1.34353268 67.3146581,1.35952696 66.234676,1.39151599 C65.154694,1.42350503 64.2352636,1.50347641 63.4763573,1.63143255 L63.4763573,31.2851182 Z M63.4763573,67.2726008 C64.1768862,67.3365789 64.9503752,67.4165503 65.7968476,67.5125174 C66.6433201,67.6084845 67.8546331,67.6564673 69.4308231,67.6564673 C72.1745613,67.6564673 74.5242167,67.3685703 76.4798599,66.7927677 C78.4355031,66.2169651 80.0408577,65.2093257 81.295972,63.7698192 C82.5510863,62.3303127 83.4705166,60.4269938 84.0542907,58.0598053 C84.6380648,55.6926168 84.9299475,52.7176813 84.9299475,49.1349096 C84.9299475,44.0166643 83.9375464,39.9861065 81.9527145,37.0431154 C79.9678827,34.1001244 77.0198678,32.6286509 73.1085814,32.6286509 L63.4763573,32.6286509 L63.4763573,67.2726008 Z M45,67.2726008 L54.7197898,67.2726008 L54.7197898,1.63143255 L45,1.63143255 L45,0.287899861 L60.323993,0.287899861 C61.1996541,0.287899861 62.0898962,0.271905584 62.9947461,0.239916551 C63.8995959,0.207927517 64.8190263,0.159944687 65.7530648,0.0959666203 C66.6871033,0.0959666203 67.5919396,0.0799723435 68.4676007,0.0479833102 C69.3432618,0.0159942768 70.1897215,0 71.0070053,0 C75.268556,0 78.771148,0.559799687 81.5148862,1.67941586 C84.2586243,2.79903202 86.418556,4.17453983 87.9947461,5.80598053 C89.5709361,7.43742123 90.6509019,9.19679168 91.234676,11.0841446 C91.8184501,12.9714976 92.1103327,14.6828852 92.1103327,16.2183588 C92.1103327,18.329635 91.6871029,20.2809368 90.8406305,22.0723227 C89.9941581,23.8637085 88.8558157,25.4311477 87.4255692,26.7746871 C85.9953227,28.1182265 84.3461856,29.2058373 82.4781086,30.0375522 C80.6100315,30.869267 78.6544177,31.4130724 76.6112084,31.6689847 L76.6112084,31.8609179 C78.7127951,32.0528521 80.8581327,32.5486747 83.0472855,33.3484006 C85.2364383,34.1481264 87.2212404,35.2677258 89.0017513,36.7072323 C90.7822623,38.1467388 92.2270814,39.9221035 93.3362522,42.0333797 C94.4454229,44.1446559 95,46.575786 95,49.3268428 C95,52.2058558 94.5037995,54.8449115 93.5113835,57.244089 C92.5189676,59.6432665 91.030366,61.7065282 89.0455342,63.433936 C87.0607023,65.1613438 84.5505114,66.5208574 81.5148862,67.5125174 C78.4792609,68.5041774 74.9474807,69 70.9194396,69 C70.1021559,69 69.2994785,68.9840057 68.5113835,68.9520167 C67.7232885,68.9200277 66.8914229,68.8720448 66.0157618,68.8080668 C65.1401007,68.7440887 64.2352644,68.6961059 63.3012259,68.6641168 C62.3671874,68.6321278 61.3747863,68.6161335 60.323993,68.6161335 L45,68.6161335 L45,67.2726008 Z" id="B"></path>
                <path d="M18.4763573,31.2851182 L26.5323993,31.2851182 C28.1669667,31.2851182 29.6555683,31.0611983 30.9982487,30.6133519 C32.3409291,30.1655054 33.4938656,29.3817858 34.4570928,28.2621697 C35.4203201,27.1425535 36.1646208,25.6230972 36.6900175,23.7037552 C37.2154142,21.7844132 37.4781086,19.3532831 37.4781086,16.4102921 C37.4781086,13.0834326 37.084067,10.4123884 36.295972,8.39707928 C35.507877,6.38177017 34.4862877,4.86231388 33.2311734,3.83866481 C31.9760591,2.81501574 30.5750223,2.14325612 29.028021,1.82336579 C27.4810197,1.50347545 25.9486357,1.34353268 24.4308231,1.34353268 C23.3800298,1.34353268 22.3146581,1.35952696 21.234676,1.39151599 C20.154694,1.42350503 19.2352636,1.50347641 18.4763573,1.63143255 L18.4763573,31.2851182 Z M18.4763573,67.2726008 C19.1768862,67.3365789 19.9503752,67.4165503 20.7968476,67.5125174 C21.6433201,67.6084845 22.8546331,67.6564673 24.4308231,67.6564673 C27.1745613,67.6564673 29.5242167,67.3685703 31.4798599,66.7927677 C33.4355031,66.2169651 35.0408577,65.2093257 36.295972,63.7698192 C37.5510863,62.3303127 38.4705166,60.4269938 39.0542907,58.0598053 C39.6380648,55.6926168 39.9299475,52.7176813 39.9299475,49.1349096 C39.9299475,44.0166643 38.9375464,39.9861065 36.9527145,37.0431154 C34.9678827,34.1001244 32.0198678,32.6286509 28.1085814,32.6286509 L18.4763573,32.6286509 L18.4763573,67.2726008 Z M0,67.2726008 L9.71978984,67.2726008 L9.71978984,1.63143255 L0,1.63143255 L0,0.287899861 L15.323993,0.287899861 C16.1996541,0.287899861 17.0898962,0.271905584 17.9947461,0.239916551 C18.8995959,0.207927517 19.8190263,0.159944687 20.7530648,0.0959666203 C21.6871033,0.0959666203 22.5919396,0.0799723435 23.4676007,0.0479833102 C24.3432618,0.0159942768 25.1897215,0 26.0070053,0 C30.268556,0 33.771148,0.559799687 36.5148862,1.67941586 C39.2586243,2.79903202 41.418556,4.17453983 42.9947461,5.80598053 C44.5709361,7.43742123 45.6509019,9.19679168 46.234676,11.0841446 C46.8184501,12.9714976 47.1103327,14.6828852 47.1103327,16.2183588 C47.1103327,18.329635 46.6871029,20.2809368 45.8406305,22.0723227 C44.9941581,23.8637085 43.8558157,25.4311477 42.4255692,26.7746871 C40.9953227,28.1182265 39.3461856,29.2058373 37.4781086,30.0375522 C35.6100315,30.869267 33.6544177,31.4130724 31.6112084,31.6689847 L31.6112084,31.8609179 C33.7127951,32.0528521 35.8581327,32.5486747 38.0472855,33.3484006 C40.2364383,34.1481264 42.2212404,35.2677258 44.0017513,36.7072323 C45.7822623,38.1467388 47.2270814,39.9221035 48.3362522,42.0333797 C49.4454229,44.1446559 50,46.575786 50,49.3268428 C50,52.2058558 49.5037995,54.8449115 48.5113835,57.244089 C47.5189676,59.6432665 46.030366,61.7065282 44.0455342,63.433936 C42.0607023,65.1613438 39.5505114,66.5208574 36.5148862,67.5125174 C33.4792609,68.5041774 29.9474807,69 25.9194396,69 C25.1021559,69 24.2994785,68.9840057 23.5113835,68.9520167 C22.7232885,68.9200277 21.8914229,68.8720448 21.0157618,68.8080668 C20.1401007,68.7440887 19.2352644,68.6961059 18.3012259,68.6641168 C17.3671874,68.6321278 16.3747863,68.6161335 15.323993,68.6161335 L0,68.6161335 L0,67.2726008 Z" id="B-Copy" transform="translate(25.000000, 34.500000) scale(-1, 1) translate(-25.000000, -34.500000) "></path>
            </g>
        </g>
    </g>
</svg>