<?xml version="1.0" encoding="UTF-8"?>
<svg width="124px" height="38px" viewBox="0 0 124 38" version="1.1" xmlns="http://www.w3.org/2000/svg" xmlns:xlink="http://www.w3.org/1999/xlink">
    <!-- Generator: Sketch 48.1 (47250) - http://www.bohemiancoding.com/sketch -->
    <title>logoBBWhite124x38</title>
    <desc>Created with Sketch.</desc>
    <defs></defs>
    <g id="logo" stroke="none" stroke-width="1" fill="none" fill-rule="evenodd" transform="translate(-165.000000, -131.000000)">
        <g id="logoBBWhite124x38" transform="translate(165.000000, 131.000000)" fill="#FFFFFF">
            <path d="M110.127191,26.3748703 C110.519859,26.5470328 110.89155,26.7780582 111.242268,27.0679499 C111.722048,27.4645196 112.123313,27.988865 112.446075,28.6410019 C112.768836,29.2931387 112.930214,30.1038913 112.930214,31.0732839 L104.869944,31.0732839 C104.869944,31.2495371 104.865583,31.4301939 104.85686,31.6152597 C104.848136,31.8003256 104.843775,32.0338576 104.843775,32.3158627 C104.843775,32.8974983 104.878667,33.5055627 104.948454,34.1400742 C105.01824,34.7745857 105.170895,35.3474 105.406423,35.8585343 C105.641952,36.3696686 105.990878,36.7926699 106.453212,37.127551 C106.915546,37.4624321 107.530527,37.6298701 108.298176,37.6298701 C109.065825,37.6298701 109.698253,37.5153073 110.19548,37.2861781 C110.692707,37.0570489 111.085248,36.7794543 111.373117,36.4533859 C111.660985,36.1273175 111.874702,35.7968477 112.014274,35.4619666 C112.153847,35.1270855 112.258525,34.8538972 112.328311,34.6423933 L112.720856,34.7217069 C112.668517,34.9155854 112.568201,35.19318 112.419905,35.5544991 C112.271609,35.9158181 112.036084,36.2771318 111.713323,36.6384508 C111.390561,36.9997699 110.954404,37.3170209 110.404837,37.5902134 C109.855271,37.8634058 109.144334,38 108.272006,38 C107.399678,38 106.592787,37.8589996 105.851308,37.5769944 C105.10983,37.2949893 104.468678,36.889613 103.927835,36.3608534 C103.386992,35.8320938 102.968281,35.2019981 102.671689,34.4705473 C102.375098,33.7390965 102.226804,32.9239377 102.226804,32.0250464 C102.226804,31.2495323 102.379459,30.4960612 102.684774,29.7646104 C102.990089,29.0331596 103.4088,28.3854388 103.94092,27.8214286 C104.47304,27.2574183 105.096745,26.8035731 105.812054,26.4598794 C106.421646,26.1669809 107.069241,25.9988895 107.754855,25.9556019 C107.641951,25.866793 107.543915,25.771976 107.460745,25.6711503 C107.28628,25.4596464 107.172879,25.2393332 107.120539,25.0102041 C107.0682,24.7810749 107.04203,24.5871993 107.04203,24.4285714 C107.04203,23.9879384 107.164154,23.6574686 107.408406,23.4371521 C107.652658,23.2168356 107.949245,23.106679 108.298176,23.106679 C108.420302,23.106679 108.551149,23.1198978 108.690722,23.1463358 C108.830294,23.1727738 108.961141,23.2212427 109.083267,23.291744 C109.205393,23.3622453 109.310071,23.4591831 109.397304,23.5825603 C109.484537,23.7059375 109.528152,23.8557505 109.528152,24.0320037 C109.528152,24.2787582 109.454005,24.5122902 109.30571,24.7326067 C109.157414,24.9529232 109.083267,25.1952677 109.083267,25.4596475 C109.083267,25.6887767 109.144329,25.8385896 109.266455,25.9090909 C109.388581,25.9795922 109.554321,26.0148423 109.76368,26.0148423 C110.042825,26.0148423 110.300157,25.9487483 110.535686,25.8165584 C110.771215,25.6843685 111.002378,25.4684616 111.229183,25.1688312 C111.455988,24.8692007 111.68279,24.4770432 111.909596,23.9923469 C112.136401,23.5076506 112.389372,22.912805 112.668517,22.2077922 L113.819984,19.2467532 L109.292625,7.93135436 L107.486915,7.93135436 L107.486915,7.56122449 L113.898493,7.56122449 L113.898493,7.93135436 L111.700238,7.93135436 L115.07613,16.2328386 L118.60904,7.93135436 L116.436955,7.93135436 L116.436955,7.56122449 L120.44092,7.56122449 L120.44092,7.93135436 L119.027756,7.93135436 L114.709754,18.1363636 C114.37827,18.8942524 114.064236,19.6565361 113.767645,20.4232375 C113.471053,21.1899389 113.174466,21.9610351 112.877875,22.7365492 C112.633623,23.3710607 112.389375,23.9262499 112.145123,24.4021336 C111.900871,24.8780172 111.643538,25.2657684 111.373117,25.5653989 C111.102695,25.8650293 110.810469,26.0897488 110.496431,26.239564 C110.380485,26.2948773 110.257405,26.3399794 110.127191,26.3748703 Z M91.0523417,18.5681818 C91.0298633,18.5480502 91.0080544,18.5274874 90.9869151,18.5064935 C90.4722417,17.9953592 90.2149088,17.2727319 90.2149088,16.33859 L90.2149088,7.93135436 L88.1998414,7.93135436 L88.1998414,7.56122449 L90.2149088,7.56122449 L90.2149088,4.15074212 C90.3544813,4.20361808 90.4853285,4.24768071 90.6074544,4.28293135 C90.7295803,4.31818199 90.9389359,4.33580705 91.2355274,4.33580705 C91.4972257,4.33580705 91.7240276,4.3049632 91.9159397,4.24327458 C92.1078519,4.18158596 92.291038,4.08024189 92.4655036,3.93923933 L92.4655036,7.56122449 L96.1816019,7.56122449 L96.1816019,7.93135436 L92.4655036,7.93135436 L92.4655036,16.5765306 C92.4655036,17.0700396 92.5134809,17.4710096 92.609437,17.7794527 C92.705393,18.0878958 92.8318787,18.325834 92.9888977,18.4932746 C93.1459167,18.6607151 93.3160181,18.7708717 93.499207,18.8237477 C93.6823958,18.8766236 93.8612204,18.9030612 94.035686,18.9030612 C94.6463155,18.9030612 95.1391734,18.6783418 95.5142744,18.2288961 C95.8893754,17.7794504 96.129262,17.2639176 96.2339413,16.682282 L96.6003172,16.8144712 C96.5479775,17.0436004 96.4694692,17.2991637 96.3647898,17.5811688 C96.2601105,17.863174 96.0987323,18.1319561 95.8806503,18.3875232 C95.6625683,18.6430903 95.379066,18.854591 95.0301348,19.0220315 C94.6812036,19.1894721 94.2450462,19.2731911 93.7216495,19.2731911 C93.1600259,19.2731911 92.6715254,19.2261099 92.2561459,19.131947 L92.2561459,31.2054731 L92.5440127,31.2054731 L97.7517843,26.6581633 L95.8937351,26.6581633 L95.8937351,26.2880334 L99.9500397,26.2880334 L99.9500397,26.6581633 L98.3798573,26.6581633 L94.297383,30.2008349 L100.080888,37.2597403 L101.206186,37.2597403 L101.206186,37.6298701 L95.3180016,37.6298701 L95.3180016,37.2597403 L97.1760508,37.2597403 L92.5440127,31.575603 L92.2561459,31.575603 L92.2561459,37.2597403 L93.6954798,37.2597403 L93.6954798,37.6298701 L87.9904837,37.6298701 L87.9904837,37.2597403 L90.0055511,37.2597403 L90.0055511,18.9383117 L87.9904837,18.9383117 L87.9904837,18.5681818 L91.0523417,18.5681818 Z M67.6921992,18.870807 C68.143386,18.9468837 68.5502413,19.053105 68.9127676,19.1894712 C69.7327559,19.4979143 70.3782689,19.876853 70.8493259,20.3262987 C71.320383,20.7757444 71.6431395,21.2604334 71.8176051,21.7803803 C71.9920707,22.3003273 72.0793021,22.7717975 72.0793021,23.1948052 C72.0793021,23.7764408 71.9528165,24.314005 71.6998414,24.8075139 C71.4468663,25.3010229 71.1066635,25.7328367 70.6792228,26.1029685 C70.2517822,26.4731002 69.7589243,26.7727261 69.2006344,27.0018553 C68.6423446,27.2309844 68.0578936,27.3807974 67.4472641,27.4512987 L67.4472641,27.5041744 C68.0753402,27.5570504 68.7164916,27.6936445 69.3707375,27.913961 C70.0249834,28.1342775 70.6181575,28.442716 71.1502776,28.8392857 C71.6823976,29.2358554 72.1141934,29.7249507 72.445678,30.3065863 C72.7771626,30.8882218 72.9429025,31.5579739 72.9429025,32.3158627 C72.9429025,33.1090021 72.7946089,33.8360357 72.4980174,34.4969852 C72.201426,35.1579347 71.7565454,35.7263427 71.1633624,36.2022263 C70.5701794,36.67811 69.8199887,37.0526424 68.9127676,37.3258349 C68.0055466,37.5990273 66.9500457,37.7356215 65.7462331,37.7356215 C65.5019813,37.7356215 65.2620948,37.7312153 65.0265662,37.7224026 C64.7910377,37.7135899 64.542428,37.7003711 64.2807296,37.6827458 C64.0190312,37.6651205 63.7486136,37.6519017 63.4694687,37.6430891 C63.1903237,37.6342764 62.8937367,37.6298701 62.5796987,37.6298701 L58,37.6298701 L58,37.2597403 L60.9048374,37.2597403 L60.9048374,19.1762523 L58,19.1762523 L58,18.9030612 L58,18.5329314 L60.9048374,18.5329314 L60.9048374,0.449443414 L58,0.449443414 L58,0.0793135436 L62.5796987,0.0793135436 C62.841397,0.0793135436 63.107453,0.0749072797 63.3778747,0.0660946197 C63.6482964,0.0572819596 63.9230755,0.0440631679 64.2022205,0.0264378479 C64.4813654,0.0264378479 64.751783,0.022031584 65.0134814,0.0132189239 C65.2751797,0.00440626391 65.528151,0 65.7724029,0 C67.0460016,0 68.0927794,0.154219237 68.9127676,0.462662338 C69.7327559,0.771105438 70.3782689,1.15004413 70.8493259,1.5994898 C71.320383,2.04893546 71.6431395,2.53362449 71.8176051,3.05357143 C71.9920707,3.57351837 72.0793021,4.04498861 72.0793021,4.46799629 C72.0793021,5.04963185 71.9528165,5.58719605 71.6998414,6.08070501 C71.4468663,6.57421397 71.1066635,7.00602783 70.6792228,7.37615955 C70.2517822,7.74629128 69.7589243,8.04591722 69.2006344,8.27504638 C68.6423446,8.50417554 68.0578936,8.65398852 67.4472641,8.7244898 L67.4472641,8.77736549 C68.0753402,8.83024145 68.7164916,8.96683563 69.3707375,9.18715213 C70.0249834,9.40746863 70.6181575,9.71590711 71.1502776,10.1124768 C71.6823976,10.5090465 72.1141934,10.9981418 72.445678,11.5797774 C72.7771626,12.1614129 72.9429025,12.831165 72.9429025,13.5890538 C72.9429025,14.3821932 72.7946089,15.1092268 72.4980174,15.7701763 C72.201426,16.4311258 71.7565454,16.9995338 71.1633624,17.4754174 C70.5701794,17.9513011 69.8199887,18.3258335 68.9127676,18.599026 C68.5320285,18.7136784 68.1251732,18.8042719 67.6921992,18.870807 Z M63.5218081,8.6187384 L65.9294211,8.6187384 C66.4179247,8.6187384 66.8628053,8.55705071 67.2640761,8.43367347 C67.665347,8.31029623 68.0099113,8.0943893 68.2977795,7.7859462 C68.5856478,7.4775031 68.808088,7.05890802 68.9651071,6.53014842 C69.1221261,6.00138882 69.2006344,5.33163671 69.2006344,4.52087199 C69.2006344,3.60435534 69.0828719,2.86850927 68.8473434,2.31331169 C68.6118148,1.75811411 68.3065047,1.33951904 67.9314036,1.05751391 C67.5563026,0.775508794 67.1375915,0.59044571 66.6752577,0.502319109 C66.2129239,0.414192509 65.7549587,0.37012987 65.3013481,0.37012987 C64.9873101,0.37012987 64.6689152,0.374536134 64.3461538,0.383348794 C64.0233925,0.392161454 63.7486133,0.414192774 63.5218081,0.449443414 L63.5218081,8.6187384 Z M63.5218081,18.5329314 C63.7311668,18.5505567 63.9623302,18.572588 64.2153053,18.599026 C64.4682804,18.625464 64.8302911,18.6386827 65.3013481,18.6386827 C66.1213364,18.6386827 66.8235498,18.55937 67.4080095,18.4007421 C67.9924692,18.2421142 68.4722424,17.9645196 68.8473434,17.5679499 C69.2224444,17.1713802 69.4972236,16.6470348 69.6716891,15.994898 C69.8461547,15.3427611 69.9333862,14.523196 69.9333862,13.5361781 C69.9333862,12.1261525 69.6367992,11.015774 69.0436162,10.2050093 C68.4504332,9.39424455 67.5693952,8.98886827 66.4004758,8.98886827 L63.5218081,8.98886827 L63.5218081,18.5329314 Z M83.8818398,11.9763451 C83.9167329,11.7295906 83.9341792,11.5004649 83.9341792,11.288961 L83.9341792,10.6280148 C83.9341792,10.028754 83.8774788,9.5352524 83.7640761,9.14749536 C83.6506735,8.75973832 83.4936568,8.45129985 83.2930214,8.22217069 C83.092386,7.99304153 82.8481378,7.83000976 82.5602696,7.7330705 C82.2724014,7.63613124 81.9627297,7.58766234 81.631245,7.58766234 C81.0380621,7.58766234 80.5495658,7.70663146 80.1657415,7.94457328 C79.7819172,8.1825151 79.476607,8.50417237 79.2498017,8.90955473 C79.0229965,9.31493709 78.8528951,9.78200107 78.7394925,10.3107607 C78.6260898,10.8395203 78.5519431,11.3947095 78.51705,11.9763451 L83.8818398,11.9763451 Z M78.4908803,12.346475 C78.4908803,12.5227282 78.4865187,12.703385 78.4777954,12.8884508 C78.4690721,13.0735167 78.4647105,13.3070487 78.4647105,13.5890538 C78.4647105,14.1706894 78.4996031,14.7787538 78.5693894,15.4132653 C78.6391756,16.0477768 78.7918307,16.6205911 79.0273592,17.1317254 C79.2628878,17.6428597 79.6118137,18.065861 80.0741475,18.4007421 C80.5364813,18.7356232 81.1514633,18.9030612 81.9191118,18.9030612 C82.6867604,18.9030612 83.3191886,18.7884984 83.8164155,18.5593692 C84.3136425,18.33024 84.7061841,18.0526454 84.9940523,17.726577 C85.2819206,17.4005086 85.4956377,17.0700388 85.6352102,16.7351577 C85.7747826,16.4002766 85.8794604,16.1270883 85.9492466,15.9155844 L86.3417922,15.994898 C86.2894526,16.1887765 86.1891363,16.4663711 86.0408406,16.8276902 C85.8925449,17.1890092 85.6570199,17.5503229 85.3342585,17.9116419 C85.0114972,18.272961 84.5753398,18.590212 84.0257732,18.8634045 C83.4762066,19.1365969 82.76527,19.2731911 81.8929421,19.2731911 C81.0206142,19.2731911 80.213723,19.1321906 79.4722443,18.8501855 C78.7307655,18.5681804 78.0896141,18.1628041 77.5487708,17.6340445 C77.0079275,17.1052849 76.5892164,16.4751892 76.2926249,15.7437384 C75.9960334,15.0122876 75.8477399,14.1971288 75.8477399,13.2982375 C75.8477399,12.5227234 76.000395,11.7692523 76.3057098,11.0378015 C76.6110245,10.3063507 77.0297356,9.65862991 77.5618557,9.09461967 C78.0939757,8.53060942 78.7176808,8.07676424 79.4329897,7.7330705 C80.1482986,7.38937676 80.9159356,7.21753247 81.7359239,7.21753247 C82.2244275,7.21753247 82.7478164,7.30565775 83.3061063,7.48191095 C83.8643961,7.65816415 84.3834235,7.9445713 84.8632038,8.341141 C85.3429842,8.7377107 85.744249,9.26205611 86.0670103,9.91419295 C86.3897716,10.5663298 86.5511499,11.3770824 86.5511499,12.346475 L78.4908803,12.346475 Z M97.9349722,15.2017625 L98.222839,15.2017625 C98.3449649,15.6247702 98.5019816,16.0521778 98.6938937,16.4839981 C98.8858059,16.9158185 99.1431388,17.3123822 99.4659001,17.6737013 C99.7886614,18.0350204 100.185565,18.33024 100.656622,18.5593692 C101.127679,18.7884984 101.694683,18.9030612 102.357653,18.9030612 C102.915943,18.9030612 103.413162,18.7312169 103.849326,18.3875232 C104.28549,18.0438295 104.503569,17.4842339 104.503569,16.7087199 C104.503569,16.0389577 104.333467,15.5674875 103.993259,15.294295 C103.653051,15.0211025 103.256148,14.8051956 102.802538,14.6465677 L100.761301,13.9327458 C100.499602,13.8446192 100.2161,13.7344626 99.9107851,13.6022727 C99.6054703,13.4700828 99.321968,13.2850197 99.0602696,13.0470779 C98.7985713,12.8091361 98.5848541,12.5051039 98.4191118,12.1349722 C98.2533695,11.7648404 98.1704996,11.2889639 98.1704996,10.7073284 C98.1704996,10.2138194 98.2664542,9.75556798 98.4583664,9.3325603 C98.6502785,8.90955262 98.911973,8.53942645 99.2434576,8.22217069 C99.5749422,7.90491493 99.9718454,7.65816415 100.434179,7.48191095 C100.896513,7.30565775 101.398094,7.21753247 101.938937,7.21753247 C102.322762,7.21753247 102.632433,7.24837631 102.867962,7.31006494 C103.10349,7.37175356 103.308484,7.43344125 103.48295,7.49512987 C103.657416,7.55681849 103.814432,7.61850619 103.954005,7.68019481 C104.093577,7.74188343 104.259317,7.77272727 104.451229,7.77272727 C104.643141,7.77272727 104.782712,7.70222705 104.869944,7.56122449 L105.157811,7.56122449 L105.157811,10.5751391 L104.869944,10.5751391 C104.747819,10.1873821 104.608248,9.81284967 104.451229,9.45153061 C104.29421,9.09021155 104.106662,8.76855429 103.88858,8.48654917 C103.670499,8.20454404 103.400081,7.98423085 103.07732,7.82560297 C102.754558,7.66697509 102.375101,7.58766234 101.938937,7.58766234 C101.101503,7.58766234 100.451628,7.77713169 99.9892942,8.15607607 C99.5269604,8.53502045 99.295797,9.0417408 99.295797,9.67625232 C99.295797,10.2402626 99.4920678,10.6676702 99.8846154,10.9584879 C100.277163,11.2493057 100.857252,11.5180878 101.624901,11.7648423 L103.535289,12.3993506 C104.355278,12.6813558 105.02696,13.069107 105.550357,13.562616 C106.073754,14.0561249 106.335448,14.708252 106.335448,15.5190167 C106.335448,15.9949003 106.243855,16.4619643 106.060666,16.9202226 C105.877477,17.378481 105.60706,17.779451 105.249405,18.1231447 C104.891751,18.4668385 104.455593,18.7444331 103.94092,18.9559369 C103.426246,19.1674408 102.837434,19.2731911 102.174465,19.2731911 C101.79064,19.2731911 101.437353,19.2335347 101.114592,19.1542208 C100.79183,19.0749068 100.495243,18.9911878 100.224822,18.9030612 C99.9543999,18.8149346 99.7057902,18.7312156 99.4789849,18.6519017 C99.2521797,18.5725877 99.0428241,18.5329314 98.850912,18.5329314 C98.6589998,18.5329314 98.5194295,18.5725877 98.4321967,18.6519017 C98.3449639,18.7312156 98.2751787,18.8149346 98.222839,18.9030612 L97.9349722,18.9030612 L97.9349722,15.2017625 Z M63.5218081,27.3455473 L65.9294211,27.3455473 C66.4179247,27.3455473 66.8628053,27.2838596 67.2640761,27.1604824 C67.665347,27.0371051 68.0099113,26.8211982 68.2977795,26.5127551 C68.5856478,26.204312 68.808088,25.7857169 68.9651071,25.2569573 C69.1221261,24.7281977 69.2006344,24.0584456 69.2006344,23.2476809 C69.2006344,22.3311642 69.0828719,21.5953182 68.8473434,21.0401206 C68.6118148,20.484923 68.3065047,20.0663279 67.9314036,19.7843228 C67.5563026,19.5023177 67.1375915,19.3172546 66.6752577,19.229128 C66.2129239,19.1410014 65.7549587,19.0969388 65.3013481,19.0969388 C64.9873101,19.0969388 64.6689152,19.101345 64.3461538,19.1101577 C64.0233925,19.1189704 63.7486133,19.1410017 63.5218081,19.1762523 L63.5218081,27.3455473 Z M63.5218081,37.2597403 C63.7311668,37.2773656 63.9623302,37.2993969 64.2153053,37.3258349 C64.4682804,37.3522729 64.8302911,37.3654917 65.3013481,37.3654917 C66.1213364,37.3654917 66.8235498,37.2861789 67.4080095,37.127551 C67.9924692,36.9689231 68.4722424,36.6913285 68.8473434,36.2947588 C69.2224444,35.8981891 69.4972236,35.3738437 69.6716891,34.7217069 C69.8461547,34.06957 69.9333862,33.2500049 69.9333862,32.262987 C69.9333862,30.8529614 69.6367992,29.7425829 69.0436162,28.9318182 C68.4504332,28.1210535 67.5693952,27.7156772 66.4004758,27.7156772 L63.5218081,27.7156772 L63.5218081,37.2597403 Z M82.5995242,31.1525974 L82.5471848,31.1525974 C82.5122917,31.3817266 82.2244278,31.6108523 81.6835845,31.8399814 L79.7208565,32.6331169 C79.1625666,32.862246 78.7351323,33.1839033 78.4385408,33.5980983 C78.1419493,34.0122934 77.9936558,34.5278262 77.9936558,35.1447124 C77.9936558,35.4090922 78.0198253,35.6822806 78.0721649,35.9642857 C78.1245046,36.2462908 78.2204593,36.4974479 78.3600317,36.7177644 C78.4996042,36.9380809 78.695875,37.1187377 78.9488501,37.2597403 C79.2018252,37.4007428 79.5289433,37.471243 79.9302141,37.471243 C80.5059505,37.471243 80.972639,37.3478677 81.3302934,37.1011132 C81.6879479,36.8543587 81.9583655,36.5459202 82.1415543,36.1757885 C82.3247432,35.8056568 82.4468673,35.4046868 82.5079302,34.9728664 C82.5689932,34.5410461 82.5995242,34.1488886 82.5995242,33.7963822 L82.5995242,31.1525974 Z M87.1792228,37.3390538 C86.9524176,37.515307 86.682,37.6695262 86.3679619,37.8017161 C86.0539239,37.933906 85.6701054,38 85.2164948,38 C84.37906,38 83.7728012,37.8193432 83.3977002,37.4580241 C83.0225992,37.0967051 82.7652664,36.5899847 82.6256939,35.9378479 L82.5733545,35.9378479 C82.5035682,36.0964757 82.4076136,36.2947576 82.2854877,36.5326994 C82.1633618,36.7706413 81.9758141,36.999767 81.722839,37.2200835 C81.4698639,37.4404 81.1340227,37.6254631 80.7153053,37.7752783 C80.2965879,37.9250935 79.7644759,38 79.1189532,38 C78.3861978,38 77.8017468,37.916281 77.3655829,37.7488404 C76.9294189,37.5813999 76.5892161,37.3743055 76.3449643,37.127551 C76.1007125,36.8807965 75.9393343,36.6032019 75.8608247,36.2947588 C75.7823152,35.9863157 75.7430611,35.6999086 75.7430611,35.4355288 C75.7430611,34.8186426 75.8651851,34.325141 76.109437,33.9550093 C76.3536888,33.5848776 76.6720837,33.2896579 77.0646312,33.0693414 C77.4571788,32.8490249 77.8933362,32.6683681 78.3731166,32.5273655 C78.8528969,32.3863629 79.3370317,32.23655 79.8255353,32.0779221 C80.4012717,31.8840436 80.8766833,31.7166055 81.2517843,31.575603 C81.6268853,31.4346004 81.9191108,31.2627561 82.1284695,31.0600649 C82.3378282,30.8573738 82.4817601,30.6018104 82.5602696,30.2933673 C82.6387791,29.9849242 82.6780333,29.5663292 82.6780333,29.0375696 C82.6780333,28.6145619 82.6518639,28.2356232 82.5995242,27.9007421 C82.5471845,27.565861 82.4512299,27.2794539 82.3116574,27.0415121 C82.1720849,26.8035702 81.9714525,26.6229134 81.7097542,26.4995362 C81.4480558,26.3761589 81.0991299,26.3144712 80.6629659,26.3144712 C80.0872295,26.3144712 79.6118179,26.4158153 79.2367169,26.6185065 C78.8616159,26.8211977 78.6740682,27.1516675 78.6740682,27.6099258 C78.6740682,27.9095562 78.7002376,28.2047759 78.7525773,28.4955937 C78.804917,28.7864115 78.8310864,29.0023184 78.8310864,29.143321 C78.8310864,29.3900754 78.743855,29.5971698 78.5693894,29.7646104 C78.3949238,29.9320509 78.1419525,30.0157699 77.8104679,30.0157699 C77.2347315,30.0157699 76.8770824,29.9100196 76.7375099,29.6985158 C76.5979374,29.4870119 76.5281523,29.2138236 76.5281523,28.8789425 C76.5281523,28.4911854 76.6153837,28.1210593 76.7898493,27.7685529 C76.9643149,27.4160465 77.2216478,27.1032017 77.5618557,26.8300093 C77.9020636,26.5568168 78.3294978,26.3409099 78.8441713,26.182282 C79.3588448,26.0236541 79.9476573,25.9443414 80.6106265,25.9443414 C81.4131682,25.9443414 82.0848506,26.0456854 82.6256939,26.2483766 C83.1665372,26.4510678 83.6026946,26.7242562 83.9341792,27.0679499 C84.2656638,27.4116436 84.5011888,27.7993949 84.6407613,28.2312152 C84.7803338,28.6630356 84.850119,29.1168807 84.850119,29.5927644 L84.850119,36.1757885 C84.850119,36.6869228 84.9286273,37.0306114 85.0856463,37.2068646 C85.2426653,37.3831178 85.4694672,37.471243 85.7660587,37.471243 C85.9579708,37.471243 86.1586032,37.4359929 86.3679619,37.3654917 C86.5773206,37.2949904 86.777953,37.18924 86.9698652,37.0482375 L87.1792228,37.3390538 Z M110.260904,30.703154 C110.295797,30.4563995 110.313243,30.2272738 110.313243,30.0157699 L110.313243,29.3548237 C110.313243,28.7555629 110.256543,28.2620613 110.14314,27.8743043 C110.029738,27.4865472 109.872721,27.1781088 109.672086,26.9489796 C109.47145,26.7198504 109.227202,26.5568187 108.939334,26.4598794 C108.651466,26.3629401 108.341794,26.3144712 108.010309,26.3144712 C107.417126,26.3144712 106.92863,26.4334404 106.544806,26.6713822 C106.160981,26.909324 105.855671,27.2309813 105.628866,27.6363636 C105.402061,28.041746 105.231959,28.50881 105.118557,29.0375696 C105.005154,29.5663292 104.931007,30.1215184 104.896114,30.703154 L110.260904,30.703154 Z M115.599524,33.9285714 L115.887391,33.9285714 C116.009517,34.3515791 116.166534,34.7789867 116.358446,35.2108071 C116.550358,35.6426274 116.807691,36.0391911 117.130452,36.4005102 C117.453213,36.7618293 117.850117,37.0570489 118.321174,37.2861781 C118.792231,37.5153073 119.359235,37.6298701 120.022205,37.6298701 C120.580494,37.6298701 121.077714,37.4580258 121.513878,37.1143321 C121.950042,36.7706384 122.168121,36.2110428 122.168121,35.4355288 C122.168121,34.7657666 121.998019,34.2942964 121.657811,34.0211039 C121.317603,33.7479114 120.9207,33.5320045 120.46709,33.3733766 L118.425852,32.6595547 C118.164154,32.5714281 117.880652,32.4612715 117.575337,32.3290816 C117.270022,32.1968917 116.98652,32.0118286 116.724822,31.7738868 C116.463123,31.535945 116.249406,31.2319128 116.083664,30.8617811 C115.917921,30.4916494 115.835052,30.0157729 115.835052,29.4341373 C115.835052,28.9406283 115.931006,28.4823769 116.122918,28.0593692 C116.31483,27.6363615 116.576525,27.2662354 116.90801,26.9489796 C117.239494,26.6317238 117.636397,26.3849731 118.098731,26.2087199 C118.561065,26.0324667 119.062646,25.9443414 119.603489,25.9443414 C119.987314,25.9443414 120.296985,25.9751852 120.532514,26.0368738 C120.768042,26.0985625 120.973036,26.1602502 121.147502,26.2219388 C121.321968,26.2836274 121.478984,26.3453151 121.618557,26.4070037 C121.758129,26.4686923 121.923869,26.4995362 122.115781,26.4995362 C122.307693,26.4995362 122.447264,26.429036 122.534496,26.2880334 L122.822363,26.2880334 L122.822363,29.3019481 L122.534496,29.3019481 C122.412371,28.914191 122.2728,28.5396586 122.115781,28.1783395 C121.958762,27.8170205 121.771214,27.4953632 121.553132,27.2133581 C121.33505,26.9313529 121.064633,26.7110398 120.741872,26.5524119 C120.41911,26.393784 120.039653,26.3144712 119.603489,26.3144712 C118.766054,26.3144712 118.11618,26.5039406 117.653846,26.882885 C117.191512,27.2618294 116.960349,27.7685497 116.960349,28.4030612 C116.960349,28.9670715 117.15662,29.3944791 117.549167,29.6852968 C117.941715,29.9761146 118.521804,30.2448967 119.289453,30.4916512 L121.199841,31.1261596 C122.01983,31.4081647 122.691512,31.7959159 123.214909,32.2894249 C123.738306,32.7829338 124,33.4350609 124,34.2458256 C124,34.7217092 123.908407,35.1887732 123.725218,35.6470315 C123.542029,36.1052899 123.271612,36.5062599 122.913957,36.8499536 C122.556303,37.1936474 122.120145,37.471242 121.605472,37.6827458 C121.090798,37.8942497 120.501986,38 119.839017,38 C119.455192,38 119.101905,37.9603436 118.779144,37.8810297 C118.456382,37.8017157 118.159795,37.7179967 117.889374,37.6298701 C117.618952,37.5417435 117.370342,37.4580245 117.143537,37.3787106 C116.916732,37.2993966 116.707376,37.2597403 116.515464,37.2597403 C116.323552,37.2597403 116.183981,37.2993966 116.096749,37.3787106 C116.009516,37.4580245 115.939731,37.5417435 115.887391,37.6298701 L115.599524,37.6298701 L115.599524,33.9285714 Z" id="Betsy-Bakes"></path>
            <g id="bb">
                <path d="M35.3954279,17.2294854 L39.8876053,17.2294854 C40.7990661,17.2294854 41.6291341,17.1061672 42.377834,16.8595271 C43.126534,16.612887 43.7694298,16.1812734 44.3065406,15.5646732 C44.8436515,14.9480729 45.2586854,14.1112709 45.551655,13.054242 C45.8446245,11.9972131 45.9911071,10.6583298 45.9911071,9.03755216 C45.9911071,7.20536868 45.7713833,5.73435882 45.3319289,4.62447844 C44.8924746,3.51459807 44.3228201,2.67779605 43.6229484,2.11404729 C42.9230767,1.55029853 42.1418363,1.18034395 41.2792037,1.00417246 C40.4165711,0.828000974 39.5620894,0.739916551 38.7157329,0.739916551 C38.1297938,0.739916551 37.5357256,0.748724993 36.9335104,0.766342142 C36.3312952,0.783959291 35.8186062,0.828001502 35.3954279,0.898470097 L35.3954279,17.2294854 Z M35.3954279,37.0486787 C35.786054,37.083913 36.2173638,37.1279552 36.6893703,37.1808067 C37.1613768,37.2336581 37.8368243,37.2600834 38.7157329,37.2600834 C40.245685,37.2600834 41.5558903,37.1015315 42.6463881,36.7844228 C43.7368859,36.4673141 44.6320572,35.9123823 45.3319289,35.1196106 C46.0318006,34.3268389 46.5444897,33.2786342 46.8700114,31.9749652 C47.1955331,30.6712962 47.3582915,29.032926 47.3582915,27.0598053 C47.3582915,24.2410615 46.8049129,22.021334 45.698139,20.4005563 C44.5913652,18.7797786 42.9475051,17.9694019 40.7665095,17.9694019 L35.3954279,17.9694019 L35.3954279,37.0486787 Z M25.0927168,37.0486787 L30.5126264,37.0486787 L30.5126264,0.898470097 L25.0927168,0.898470097 L25.0927168,0.158553547 L33.6376194,0.158553547 C34.125902,0.158553547 34.6223152,0.149745104 35.1268738,0.132127955 C35.6314325,0.114510807 36.1441215,0.0880854798 36.6649563,0.0528511822 C37.1857911,0.0528511822 37.6903422,0.0440427399 38.1786248,0.0264255911 C38.6669074,0.00880844228 39.1389068,0 39.5946372,0 C41.9709458,0 43.9240469,0.30829548 45.453999,0.924895688 C46.9839511,1.5414959 48.1883634,2.29902193 49.0672721,3.19749652 C49.9461807,4.09597111 50.5483869,5.06489976 50.8739086,6.10431154 C51.1994303,7.14372332 51.3621888,8.08622665 51.3621888,8.93184979 C51.3621888,10.0945816 51.126189,11.1692116 50.6541825,12.1557719 C50.182176,13.1423322 49.5474182,14.0055596 48.74989,14.7454798 C47.9523617,15.4854001 47.0327767,16.0843742 45.9911071,16.54242 C44.9494376,17.0004659 43.8589562,17.2999529 42.7196301,17.4408901 L42.7196301,17.5465925 C43.8915084,17.6522954 45.0877828,17.9253571 46.3084892,18.3657858 C47.5291957,18.8062145 48.635953,19.4228055 49.6287942,20.2155772 C50.6216355,21.0083489 51.4272897,21.986086 52.045781,23.1488178 C52.6642722,24.3115496 52.9735132,25.6504329 52.9735132,27.1655076 C52.9735132,28.751051 52.6968239,30.204444 52.143437,31.5257302 C51.5900501,32.8470163 50.7599821,33.9833054 49.6532082,34.9346314 C48.5464344,35.8859575 47.1467119,36.6346751 45.453999,37.1808067 C43.761286,37.7269383 41.7919091,38 39.5458092,38 C39.0900788,38 38.6424931,37.9911916 38.2030388,37.9735744 C37.7635844,37.9559573 37.2997229,37.9295319 36.8114403,37.8942976 C36.3231578,37.8590633 35.8186067,37.832638 35.2977719,37.8150209 C34.7769371,37.7974037 34.2235585,37.7885953 33.6376194,37.7885953 L25.0927168,37.7885953 L25.0927168,37.0486787 Z" id="B"></path>
                <path d="M10.3027111,17.2294854 L14.7948885,17.2294854 C15.7063493,17.2294854 16.5364173,17.1061672 17.2851172,16.8595271 C18.0338172,16.612887 18.676713,16.1812734 19.2138238,15.5646732 C19.7509347,14.9480729 20.1659686,14.1112709 20.4589382,13.054242 C20.7519077,11.9972131 20.8983903,10.6583298 20.8983903,9.03755216 C20.8983903,7.20536868 20.6786665,5.73435882 20.2392121,4.62447844 C19.7997578,3.51459807 19.2301033,2.67779605 18.5302316,2.11404729 C17.8303599,1.55029853 17.0491195,1.18034395 16.1864869,1.00417246 C15.3238543,0.828000974 14.4693726,0.739916551 13.6230161,0.739916551 C13.037077,0.739916551 12.4430088,0.748724993 11.8407936,0.766342142 C11.2385784,0.783959291 10.7258894,0.828001502 10.3027111,0.898470097 L10.3027111,17.2294854 Z M10.3027111,37.0486787 C10.6933372,37.083913 11.124647,37.1279552 11.5966535,37.1808067 C12.06866,37.2336581 12.7441075,37.2600834 13.6230161,37.2600834 C15.1529682,37.2600834 16.4631735,37.1015315 17.5536713,36.7844228 C18.6441691,36.4673141 19.5393404,35.9123823 20.2392121,35.1196106 C20.9390838,34.3268389 21.4517729,33.2786342 21.7772946,31.9749652 C22.1028163,30.6712962 22.2655747,29.032926 22.2655747,27.0598053 C22.2655747,24.2410615 21.7121961,22.021334 20.6054222,20.4005563 C19.4986484,18.7797786 17.8547883,17.9694019 15.6737927,17.9694019 L10.3027111,17.9694019 L10.3027111,37.0486787 Z M0,37.0486787 L5.41990964,37.0486787 L5.41990964,0.898470097 L0,0.898470097 L0,0.158553547 L8.54490259,0.158553547 C9.03318518,0.158553547 9.52959836,0.149745104 10.034157,0.132127955 C10.5387157,0.114510807 11.0514047,0.0880854798 11.5722395,0.0528511822 C12.0930743,0.0528511822 12.5976254,0.0440427399 13.085908,0.0264255911 C13.5741906,0.00880844228 14.04619,0 14.5019204,0 C16.878229,0 18.8313301,0.30829548 20.3612822,0.924895688 C21.8912343,1.5414959 23.0956466,2.29902193 23.9745553,3.19749652 C24.8534639,4.09597111 25.4556701,5.06489976 25.7811918,6.10431154 C26.1067135,7.14372332 26.269472,8.08622665 26.269472,8.93184979 C26.269472,10.0945816 26.0334722,11.1692116 25.5614657,12.1557719 C25.0894592,13.1423322 24.4547014,14.0055596 23.6571732,14.7454798 C22.8596449,15.4854001 21.9400599,16.0843742 20.8983903,16.54242 C19.8567208,17.0004659 18.7662394,17.2999529 17.6269133,17.4408901 L17.6269133,17.5465925 C18.7987916,17.6522954 19.995066,17.9253571 21.2157724,18.3657858 C22.4364789,18.8062145 23.5432362,19.4228055 24.5360774,20.2155772 C25.5289187,21.0083489 26.3345729,21.986086 26.9530642,23.1488178 C27.5715554,24.3115496 27.8807964,25.6504329 27.8807964,27.1655076 C27.8807964,28.751051 27.6041071,30.204444 27.0507202,31.5257302 C26.4973333,32.8470163 25.6672653,33.9833054 24.5604914,34.9346314 C23.4537176,35.8859575 22.0539951,36.6346751 20.3612822,37.1808067 C18.6685692,37.7269383 16.6991923,38 14.4530924,38 C13.997362,38 13.5497763,37.9911916 13.110322,37.9735744 C12.6708676,37.9559573 12.2070061,37.9295319 11.7187235,37.8942976 C11.230441,37.8590633 10.7258899,37.832638 10.2050551,37.8150209 C9.68422033,37.7974037 9.1308417,37.7885953 8.54490259,37.7885953 L0,37.7885953 L0,37.0486787 Z" id="B-Copy" transform="translate(13.940398, 19.000000) scale(-1, 1) translate(-13.940398, -19.000000) "></path>
            </g>
        </g>
    </g>
</svg>